<svg width="21" height="24" viewBox="0 0 21 24" fill="none" xmlns="http://www.w3.org/2000/svg">
<path fill-rule="evenodd" clip-rule="evenodd" d="M20.685 6.14397L20.5217 5.84398C20.311 5.4812 20.0138 5.17969 19.6583 4.96798L11.83 0.323999C11.4756 0.1125 11.0732 0.000743997 10.6633 0H10.325C9.91515 0.000743997 9.51277 0.1125 9.15833 0.323999L1.33 4.97998C0.976465 5.19029 0.682803 5.49234 0.478333 5.85598L0.315 6.15597C0.109375 6.52058 0.000723333 6.93446 0 7.35597V16.6559C0.000723333 17.0775 0.109375 17.4914 0.315 17.8559L0.478333 18.1559C0.688088 18.5153 0.980571 18.8162 1.33 19.0319L9.17 23.6759C9.52268 23.8918 9.92623 24.0039 10.3367 23.9999H10.6633C11.0732 23.9992 11.4756 23.8875 11.83 23.6759L19.6583 19.0199C20.0153 18.8144 20.3102 18.5111 20.51 18.1439L20.685 17.8439C20.8881 17.4783 20.9966 17.0651 21 16.6439V7.34397C20.9993 6.92246 20.8907 6.50858 20.685 6.14397ZM10.325 2.39999H10.6633L17.5 6.45597L10.5 10.608L3.5 6.45597L10.325 2.39999ZM11.6667 20.9999L18.4917 16.9439L18.6667 16.6439V8.53196L11.6667 12.6959V20.9999Z" fill="#0B63E5"/>
</svg>
