<svg width="20" height="22" viewBox="0 0 20 22" fill="none" xmlns="http://www.w3.org/2000/svg">
<path d="M19.1365 10H16.1365C15.7387 10 15.3571 10.158 15.0758 10.4393C14.7945 10.7207 14.6365 11.1022 14.6365 11.5V15.25C14.6365 15.6478 14.7945 16.0294 15.0758 16.3107C15.3571 16.592 15.7387 16.75 16.1365 16.75H17.6365C18.0343 16.75 18.4158 16.592 18.6971 16.3107C18.9784 16.0294 19.1365 15.6478 19.1365 15.25V10ZM19.1365 10C19.1365 8.81237 18.9014 7.63647 18.4449 6.5401C17.9883 5.44373 17.3192 4.44856 16.4763 3.61196C15.6333 2.77536 14.6331 2.11388 13.5333 1.66564C12.4335 1.21739 11.2558 0.991255 10.0682 1.00026C8.88064 0.991255 7.70299 1.21739 6.60319 1.66564C5.50339 2.11388 4.50318 2.77536 3.66021 3.61196C2.81725 4.44856 2.1482 5.44373 1.69163 6.5401C1.23506 7.63647 1 8.81237 1 10V15.25C1 15.6478 1.15804 16.0294 1.43934 16.3107C1.72064 16.592 2.10218 16.75 2.5 16.75H4C4.39782 16.75 4.77936 16.592 5.06066 16.3107C5.34196 16.0294 5.5 15.6478 5.5 15.25V11.5C5.5 11.1022 5.34196 10.7207 5.06066 10.4393C4.77936 10.158 4.39782 10 4 10H1" stroke="white" stroke-width="1.5" stroke-linecap="round" stroke-linejoin="round"/>
<path d="M18.6365 15.25V17.5C18.6365 18.2956 18.3204 19.0587 17.7578 19.6213C17.1952 20.1839 16.4321 20.5 15.6365 20.5H10.25" stroke="white" stroke-width="1.5" stroke-linecap="round" stroke-linejoin="round"/>
</svg>
