<svg width="152" height="56" viewBox="0 0 152 56" fill="none" xmlns="http://www.w3.org/2000/svg">
<g clip-path="url(#clip0_2_113)">
<g clip-path="url(#clip1_2_113)">
<mask id="mask0_2_113" style="mask-type:luminance" maskUnits="userSpaceOnUse" x="0" y="0" width="151" height="54">
<path d="M150.5 0H0.5V54H150.5V0Z" fill="white"/>
</mask>
<g mask="url(#mask0_2_113)">
<path d="M50.5 36H44.5V19H50.5C52.2882 19 54.2094 19.3193 55.5 20C56.7905 20.6751 57.8056 21.7328 58.5 23C59.2002 24.2673 59.5 25.2347 59.5 27C59.5 28.7709 59.2002 30.7272 58.5 32C57.8056 33.2728 56.8021 34.3193 55.5 35C54.2037 35.6807 52.3055 36 50.5 36ZM48.5 33H50.5C51.6112 33 52.7419 32.3763 53.5 32C54.2639 31.6182 55.1181 31.7969 55.5 31C55.8878 30.1976 55.5 28.2672 55.5 27C55.5 25.7438 55.8878 24.7968 55.5 24C55.1181 23.2031 54.2581 23.3763 53.5 23C52.7419 22.6238 51.6111 22 50.5 22H48.5V33Z" fill="#141D38"/>
<path d="M67.5 36.9998C66.2076 36.9998 65.4325 36.5648 64.5 35.9998C63.5729 35.429 63.0017 35.0414 62.5 33.9998C61.9983 32.9522 61.5 31.4298 61.5 29.9998C61.5 28.6051 61.9983 27.0531 62.5 25.9998C63.0017 24.9463 63.5893 24.5883 64.5 23.9998C65.4161 23.4113 66.2675 22.9998 67.5 22.9998C68.329 22.9998 68.7855 22.7113 69.5 22.9998C70.2198 23.2822 70.9656 24.4289 71.5 24.9998C72.0399 25.5706 73.2001 26.1347 73.5 26.9998C73.7999 27.8589 73.5 28.8463 73.5 29.9998V30.9998H62.5V28.9998H70.5C70.5 28.4584 69.7182 27.4176 69.5 26.9998C69.2818 26.582 68.8872 26.2352 68.5 25.9998C68.1183 25.7585 68.0072 25.9998 67.5 25.9998C66.9711 25.9998 66.909 25.7349 66.5 25.9998C66.0964 26.2587 65.7291 26.5585 65.5 26.9998C65.271 27.4353 64.5054 28.4643 64.5 28.9998V30.9998C64.5 31.6706 65.271 32.5113 65.5 32.9998C65.7345 33.4882 66.0746 33.7351 66.5 33.9998C66.9254 34.2646 66.9165 33.9998 67.5 33.9998C67.8872 33.9998 68.1783 34.1174 68.5 33.9998C68.8218 33.8821 69.271 33.2352 69.5 32.9998C69.7291 32.7645 70.38 33.3412 70.5 32.9998H73.5C73.3365 33.8354 73.0072 34.3761 72.5 34.9998C71.9983 35.6177 71.2962 35.6525 70.5 35.9998C69.7093 36.3411 68.5362 36.9998 67.5 36.9998Z" fill="#141D38"/>
<path d="M87.5 23L83.5 36H78.5L74.5 23H78.5L80.5 32H81.5L83.5 23H87.5Z" fill="#141D38"/>
<path d="M93.5 36L88.5 19H92.5L95.5 31L98.5 19H102.5L105.5 31L108.5 19H112.5L107.5 36H103.5L100.5 25L97.5 36H93.5Z" fill="#141D38"/>
<path d="M114.5 36V23H118.5V36H114.5ZM116.5 22C115.95 22 115.895 21.3491 115.5 21C115.112 20.6452 114.5 20.4933 114.5 20C114.5 19.5122 115.112 19.3491 115.5 19C115.895 18.6452 115.95 18 116.5 18C117.051 18 117.111 18.6452 117.5 19C117.894 19.3491 118.5 19.5122 118.5 20C118.5 20.4933 117.894 20.6452 117.5 21C117.111 21.3491 117.051 22 116.5 22Z" fill="#141D38"/>
<path d="M132.5 27H128.5C128.442 26.7058 128.692 26.2354 128.5 26C128.309 25.7588 127.813 26.1412 127.5 26C127.193 25.8528 126.929 26 126.5 26C125.927 26 125.895 25.7528 125.5 26C125.106 26.2412 124.5 26.5939 124.5 27C124.5 27.3237 124.245 27.7764 124.5 28C124.755 28.2236 125.88 27.8646 126.5 28L128.5 29C129.798 29.2707 130.863 29.3998 131.5 30C132.137 30.6002 132.5 32.0231 132.5 33C132.5 33.8885 132.016 34.3292 131.5 35C130.99 35.6708 130.392 35.6233 129.5 36C128.614 36.3707 127.659 37 126.5 37C124.733 37 123.549 36.7474 122.5 36C121.458 35.2467 120.679 34.2947 120.5 33H124.5C124.61 33.5473 124.077 33.7117 124.5 34C124.923 34.2824 125.839 34 126.5 34C127.148 34 128.106 34.2531 128.5 34C128.9 33.7411 128.494 33.406 128.5 33C128.494 32.6586 128.778 32.2177 128.5 32C128.222 31.7764 128.079 32.1177 127.5 32L124.5 31C123.196 30.7352 122.137 30.6532 121.5 30C120.868 29.3469 120.5 28.0122 120.5 27C120.5 26.1291 121.037 25.6297 121.5 25C121.97 24.3704 122.654 24.3413 123.5 24C124.351 23.6586 125.359 23 126.5 23C128.185 23 129.532 23.2762 130.5 24C131.474 24.7239 132.338 25.7524 132.5 27Z" fill="#141D38"/>
<path d="M140.5 36.9998C139.208 36.9998 138.432 36.5648 137.5 35.9998C136.573 35.429 136.002 35.0414 135.5 33.9998C134.998 32.9522 134.5 31.4298 134.5 29.9998C134.5 28.6051 134.998 27.0531 135.5 25.9998C136.002 24.9463 136.589 24.5883 137.5 23.9998C138.417 23.4113 139.268 22.9998 140.5 22.9998C141.329 22.9998 141.786 22.7113 142.5 22.9998C143.22 23.2822 143.966 24.4289 144.5 24.9998C145.04 25.5706 146.2 26.1347 146.5 26.9998C146.799 27.8589 146.5 28.8463 146.5 29.9998V30.9998H135.5V28.9998H143.5C143.5 28.4584 142.718 27.4176 142.5 26.9998C142.282 26.582 141.888 26.2352 141.5 25.9998C141.118 25.7585 141.007 25.9998 140.5 25.9998C139.971 25.9998 139.909 25.7349 139.5 25.9998C139.097 26.2587 138.729 26.5585 138.5 26.9998C138.272 27.4353 137.506 28.4643 137.5 28.9998V30.9998C137.5 31.6706 138.271 32.5113 138.5 32.9998C138.734 33.4882 139.075 33.7351 139.5 33.9998C139.925 34.2646 139.916 33.9998 140.5 33.9998C140.887 33.9998 141.178 34.1174 141.5 33.9998C141.822 33.8821 142.271 33.2352 142.5 32.9998C142.728 32.7645 143.38 33.3412 143.5 32.9998H146.5C146.336 33.8354 146.007 34.3761 145.5 34.9998C144.998 35.6177 144.297 35.6525 143.5 35.9998C142.709 36.3411 141.537 36.9998 140.5 36.9998Z" fill="#141D38"/>
<path fill-rule="evenodd" clip-rule="evenodd" d="M36.4982 29C36.5469 28.5 36.4982 28.5127 36.4982 28C36.4982 27.6939 36.5157 27.3017 36.4982 27H5.49818C5.48067 27.3017 5.49818 27.6939 5.49818 28C5.49818 28.5127 5.44954 28.5 5.49818 29H36.4982ZM35.4982 33H6.49818C6.79742 33.8467 7.06325 34.2281 7.49818 35H34.4982C34.9331 34.2281 35.199 33.8467 35.4982 33ZM31.4982 39H10.4982C13.2771 41.637 17.3648 43 21.4982 43C25.6315 43 28.7193 41.637 31.4982 39ZM6.49818 23H35.4982C35.239 22.1567 34.8907 21.7752 34.4982 21H7.49818C7.10577 21.7752 6.75733 22.1567 6.49818 23ZM9.49818 17H32.4982C29.6721 14.0059 25.9403 12 21.4982 12C17.056 12 12.3242 14.0059 9.49818 17Z" fill="#141D38"/>
<path fill-rule="evenodd" clip-rule="evenodd" d="M36.4982 29C36.5469 28.5 36.4982 28.5127 36.4982 28C36.4982 27.6939 36.5157 27.3017 36.4982 27H5.49818C5.48067 27.3017 5.49818 27.6939 5.49818 28C5.49818 28.5127 5.44954 28.5 5.49818 29H36.4982ZM35.4982 33H6.49818C6.79742 33.8467 7.06325 34.2281 7.49818 35H34.4982C34.9331 34.2281 35.199 33.8467 35.4982 33ZM31.4982 39H10.4982C13.2771 41.637 17.3648 43 21.4982 43C25.6315 43 28.7193 41.637 31.4982 39ZM6.49818 23H35.4982C35.239 22.1567 34.8907 21.7752 34.4982 21H7.49818C7.10577 21.7752 6.75733 22.1567 6.49818 23ZM9.49818 17H32.4982C29.6721 14.0059 25.9403 12 21.4982 12C17.056 12 12.3242 14.0059 9.49818 17Z" fill="#141D38"/>
</g>
</g>
</g>
<defs>
<clipPath id="clip0_2_113">
<rect width="151" height="55" fill="white" transform="translate(0.5)"/>
</clipPath>
<clipPath id="clip1_2_113">
<rect width="151" height="55" fill="white" transform="translate(0.5)"/>
</clipPath>
</defs>
</svg>
