<svg width="34" height="34" viewBox="0 0 34 34" fill="none" xmlns="http://www.w3.org/2000/svg">
<path fill-rule="evenodd" clip-rule="evenodd" d="M1.90693 15.7846C1.87609 10.3263 3.53814 6.64754 6.1751 4.3261C7.39258 3.25431 8.83152 2.45975 10.4333 1.91411C12.3154 1.27359 14.4207 0.976288 16.6553 0.976288V0.975958H16.7181H17.7213H17.7216L17.7386 0.975963C21.8766 0.988909 25.5567 2.01069 28.2028 4.3269C30.8555 6.649 32.5328 10.3284 32.5328 15.787V18.9855C32.5328 23.0612 30.8794 26.3282 28.216 28.5831C25.5458 30.8436 21.8389 32.1034 17.7216 32.1034H16.7181C12.6008 32.1034 8.89385 30.8436 6.2237 28.5831C3.56027 26.3282 1.90693 23.0612 1.90693 18.9855L1.90694 15.787L1.90693 15.7846ZM10.1627 1.10004C12.0429 0.460624 14.114 0.152542 16.2791 0.120789V0.118161H16.5768L16.6554 0.118042H17.6589L17.7216 0.118161H17.738H18.0979V0.120908C22.2177 0.181332 25.9968 1.24225 28.7761 3.68197C31.2633 5.86536 32.9018 9.11074 33.2976 13.6023C33.3591 14.3002 33.3906 15.0282 33.3906 15.787L33.3906 15.7871V18.9857L33.3906 18.9857C33.3906 19.2562 33.3837 19.5234 33.37 19.7874C33.1657 23.748 31.4474 26.9714 28.7703 29.2379C26.0049 31.579 22.237 32.8834 18.0979 32.9579V33.0236H17.7213V32.9613H16.7181H16.6553V32.9616C16.6159 32.9616 16.5766 32.9615 16.5373 32.9613H16.2791V32.9583C12.14 32.8838 8.37198 31.5793 5.60664 29.2382C2.75103 26.8207 0.986328 23.3143 0.986328 18.986V15.7875C0.986328 10.1453 2.72711 6.20496 5.60082 3.6823C6.91973 2.52451 8.46384 1.67723 10.1627 1.10004ZM17.9101 18.0449C17.9101 16.9788 18.0982 15.9753 19.4153 15.9753C20.6696 15.9753 20.6696 17.1669 20.6069 17.9822V21.8706H23.0528V17.4805C23.0528 15.3481 22.6138 13.7175 20.1052 13.7175C18.9135 13.7175 18.0982 14.4074 17.7846 15.0345V13.9684H15.4014V21.9961H17.9101V18.0449ZM13.8962 13.9687H11.3875V21.9336H13.8962V13.9687ZM14.0841 11.4596C14.0841 10.6443 13.457 10.0172 12.6417 10.0172C11.8263 10.0172 11.1992 10.6443 11.1992 11.4596C11.1992 12.2749 11.8263 12.9021 12.6417 12.9021C13.457 12.9021 14.0841 12.2749 14.0841 11.4596Z" fill="#141D38"/>
</svg>
