<svg width="34" height="34" viewBox="0 0 34 34" fill="none" xmlns="http://www.w3.org/2000/svg">
<path fill-rule="evenodd" clip-rule="evenodd" d="M17.0591 0.000630314V0H17.4432V0.00408131C21.6628 0.080097 25.5036 1.40993 28.3221 3.79606C31.2326 6.26004 33.0313 9.8337 33.0313 14.2456V17.5077C33.0313 17.5827 33.031 17.6574 33.0304 17.7318C32.9977 23.3986 31.2288 27.3639 28.3275 29.9108C25.4952 32.3971 21.6433 33.4788 17.4432 33.5405V33.5429H17.198C17.1517 33.5432 17.1053 33.5433 17.0589 33.5433H16.0355H15.972V33.5436C15.9474 33.5436 15.9228 33.5436 15.8983 33.5435C15.8792 33.5435 15.8601 33.5434 15.8411 33.5433H15.5878V33.5408C11.3875 33.4791 7.53533 32.3972 4.70281 29.9026C1.77428 27.3235 0 23.2914 0 17.5077V14.2456C0 14.1766 0.000439151 14.1079 0.00131486 14.0394C0.0564812 9.72229 1.84416 6.22154 4.70915 3.79606C7.6129 1.33777 11.6017 0.000630314 15.972 0.000630314V0.000724487L16.0359 0.000630314H17.0591ZM5.27094 4.45114C7.90689 2.22589 11.5346 0.950787 15.5878 0.863254V0.922066H16.0355H17.0589C21.2597 0.922066 25.0424 2.20742 27.7675 4.51439C30.4858 6.81567 32.1731 10.15 32.1731 14.3092V17.5713C32.1731 17.6232 32.1729 17.6748 32.1726 17.7264C32.1286 23.2079 30.4263 26.9113 27.7545 29.25C25.0375 31.6284 21.2522 32.6534 16.9985 32.6219L16.9954 32.6219H15.972C11.75 32.6219 7.97948 31.5816 5.26923 29.2025C2.56904 26.8321 0.857797 23.0767 0.857797 17.5077V14.2456C0.857797 13.8557 0.872626 13.473 0.90175 13.0978C1.18328 9.4704 2.80059 6.53659 5.27094 4.45114ZM20.4491 11.9423V9.51174C20.3212 9.47976 20.1933 9.46377 20.0654 9.44778C19.9374 9.43179 19.8095 9.4158 19.6816 9.38381H18.2744C17.5068 9.44778 16.8032 9.5757 16.2276 10.0234C15.524 10.5352 15.1402 11.2387 15.0123 12.0703C14.9483 12.3901 14.9483 12.7739 14.9483 13.0937V13.0937V14.6928V14.8847H12.6456V17.5711H14.9483V24.4152H17.7627V17.6351H20.0654C20.1293 16.7396 20.2572 15.8442 20.3852 14.9487L20.3852 14.9486H19.8735H17.6987V13.0297C17.7627 12.1982 18.2104 11.9423 18.8501 11.9423H20.2572H20.4491Z" fill="#141D38"/>
</svg>
