<svg width="33" height="34" viewBox="0 0 33 34" fill="none" xmlns="http://www.w3.org/2000/svg">
<path fill-rule="evenodd" clip-rule="evenodd" d="M17.0685 0.11871V0.118042H17.4451V0.122085C21.5843 0.196541 25.3524 1.50098 28.1178 3.84213C30.9734 6.25967 32.7381 9.766 32.7381 14.0943V17.2929C32.7381 17.3911 32.7376 17.4889 32.7365 17.5861C32.6896 23.1049 30.9574 26.9721 28.123 29.4602C25.3439 31.8999 21.5648 32.9608 17.4451 33.0213V33.0237H17.192L17.0686 33.024H16.0651H16.003V33.0246C15.9475 33.0246 15.892 33.0244 15.8367 33.024H15.6261V33.0218C11.5065 32.9613 7.72722 31.9001 4.94796 29.4525C2.07429 26.9217 0.333984 22.9656 0.333984 17.2929V14.0943C0.333984 14.0267 0.334415 13.9593 0.335274 13.8921C0.389398 9.65669 2.14331 6.22189 4.9543 3.84213C7.80319 1.43029 11.7163 0.11871 16.003 0.11871V0.118802L16.0657 0.11871H17.0685ZM5.51593 4.49721C8.09874 2.31682 11.6537 1.0671 15.6261 0.981245V1.03869H16.0651H17.0686C21.1859 1.03869 24.8928 2.29848 27.563 4.559C30.2264 6.81384 31.8797 10.0809 31.8797 14.1565V17.3551C31.8797 17.4296 31.8794 17.5038 31.8788 17.5777C31.8217 22.9119 30.1564 26.5188 27.5503 28.8C24.8883 31.1303 21.1791 32.135 17.0096 32.1041L17.0064 32.1041H16.003C11.8645 32.1041 8.16977 31.0844 5.51437 28.7534C2.86904 26.4312 1.19178 22.7515 1.19178 17.2929V14.0943C1.19178 13.8396 1.19824 13.5881 1.211 13.3397C1.40241 9.61437 3.01197 6.61104 5.51593 4.49721ZM22.086 10.7697C22.7758 11.3968 23.1521 12.2121 23.2149 13.0902C23.3403 14.1563 23.4657 19.2364 23.1521 20.428C22.7131 21.9332 21.7097 22.8739 20.1418 23.1248C18.9501 23.3129 13.682 23.3129 12.6158 23.0621C11.0479 22.6858 10.1071 21.6823 9.85627 20.1144C9.66812 18.9855 9.6054 13.5919 9.91898 12.463C10.358 10.9578 11.3615 10.0798 12.8667 9.82891C14.2464 9.57805 18.0094 9.64076 19.5773 9.76619C20.518 9.82891 21.3961 10.0798 22.086 10.7697ZM19.7655 21.9332C21.0198 21.8077 21.7724 21.0551 21.9605 19.8635C22.1487 18.6719 22.1487 14.3445 22.0232 13.1529C21.8978 11.8986 21.1452 11.146 19.9536 10.9578C18.762 10.8324 14.4346 10.8324 13.243 10.9578C12.0513 11.0832 11.2987 11.8358 11.1106 13.0274C10.9224 14.2818 10.9852 18.9855 11.1106 19.9262C11.236 20.9297 11.8005 21.5569 12.7412 21.8077C13.7447 22.1213 18.6993 22.0586 19.7655 21.9332ZM12.9921 16.4768C12.9921 14.5326 14.56 12.9647 16.5042 12.9647C18.4484 12.9647 20.0163 14.5326 20.0163 16.4768C20.0163 18.4211 18.4484 19.989 16.5042 19.989C14.56 19.989 12.9921 18.4211 12.9921 16.4768ZM14.2464 16.4768C14.2464 17.7312 15.2499 18.7346 16.5042 18.7346C17.7585 18.7346 18.762 17.7312 18.762 16.4768C18.762 15.2225 17.7585 14.2191 16.5042 14.2191C15.2499 14.2191 14.2464 15.2225 14.2464 16.4768ZM20.1418 13.6546C20.5808 13.6546 20.9571 13.2783 20.9571 12.8393C20.9571 12.4003 20.6435 12.024 20.1418 12.024C19.7027 12.024 19.3264 12.4003 19.3264 12.8393C19.3264 13.2783 19.7027 13.6546 20.1418 13.6546Z" fill="#141D38"/>
</svg>
