<svg width="152" height="56" viewBox="0 0 152 56" fill="none" xmlns="http://www.w3.org/2000/svg">
<g clip-path="url(#clip0_2_279)">
<g clip-path="url(#clip1_2_279)">
<path d="M36.5 15L22.5 32H34.5L33.5 43L47.5 26H34.5L36.5 15Z" fill="#141D38"/>
<path d="M66.5 27V32H59.5V39H53.5V18H68.5V23H59.5V27H66.5Z" fill="#141D38"/>
<path d="M76.5 18V39H71.5V18H76.5Z" fill="#141D38"/>
<path d="M85.5 22C86.3331 22 87.7084 22.6222 88.5 23C89.3127 23.3568 89.9788 23.4333 90.5 24V22H95.5V39H90.5V36C90.1039 36.8814 89.312 37.3912 88.5 38C87.6873 38.6086 86.6457 39 85.5 39C84.3122 39 83.541 38.6086 82.5 38C81.4583 37.3912 80.1664 36.2592 79.5 35C78.8541 33.7196 78.5 31.9309 78.5 30C78.5 28.1951 78.8541 27.2592 79.5 26C80.1664 24.7408 81.4168 23.6507 82.5 23C83.6042 22.3285 84.2082 22 85.5 22ZM86.5 27C85.7295 27 85.0205 27.3703 84.5 28C83.9999 28.6296 84.5 29.1396 84.5 30C84.5 30.8606 83.9795 32.4126 84.5 33C85.0213 33.5877 85.6458 34 86.5 34C86.9579 34 88.0202 33.2307 88.5 33C88.9784 32.7481 89.1671 32.4825 89.5 32C89.8548 31.4963 90.5 30.7765 90.5 30V29C90.0414 28.6223 89.0838 28.2519 88.5 28C87.9381 27.7481 87.1042 27 86.5 27Z" fill="#141D38"/>
<path d="M104.5 21.9998C105.581 21.9998 106.593 21.685 107.5 21.9998C108.43 22.2936 108.938 23.4751 109.5 23.9998V27.9998C108.938 27.664 108.212 27.2936 107.5 26.9998C106.786 26.685 106.321 26.9998 105.5 26.9998C104.981 26.9998 104.91 26.7899 104.5 26.9998C104.11 27.1886 103.5 27.58 103.5 27.9998C103.262 27.853 103.5 28.2936 103.5 27.9998C103.737 28.1467 104.809 28.8319 105.5 28.9998H106.5C109.374 29.7134 110.5 31.7121 110.5 33.9998C110.5 35.0491 110.149 35.181 109.5 35.9998C108.873 36.7973 108.536 37.5379 107.5 37.9998C106.483 38.4407 104.689 38.9998 103.5 38.9998C102.268 38.9998 101.559 38.3357 100.5 37.9998C99.4411 37.6431 98.2564 37.5033 97.5 36.9998V32.9998C98.2783 33.4612 99.5272 33.6851 100.5 33.9998C101.494 34.3147 101.722 34.9998 102.5 34.9998C103.127 34.9998 104.219 34.1466 104.5 33.9998C104.5 34.3775 104.802 33.8529 104.5 33.9998C104.5 33.7058 104.847 33.1467 104.5 32.9998C104.154 32.832 103.148 32.2096 102.5 31.9998H101.5C100.29 31.6432 99.0619 30.7554 98.5 29.9998C97.9381 29.2233 97.5 28.1121 97.5 26.9998C97.5 25.8875 97.8944 25.7973 98.5 24.9998C99.1048 24.2022 99.4623 23.4405 100.5 22.9998C101.558 22.559 103.203 21.9998 104.5 21.9998Z" fill="#141D38"/>
<path d="M120.5 23C122.083 23 122.506 22.8925 123.5 24C124.514 25.1074 125.5 26.8268 125.5 29V39H120.5V30C120.5 29.2059 119.926 28.3135 119.5 28C119.074 27.6656 119.027 28 118.5 28C117.931 28 116.886 27.6864 116.5 28C116.115 28.2925 115.784 28.5822 115.5 29V39H110.5V18H115.5V25C115.987 24.3105 116.811 23.5014 117.5 23C118.21 22.4985 119.466 23 120.5 23Z" fill="#141D38"/>
<path d="M125.5 18V19H124.5V21V19H123.5V18H125.5Z" fill="#141D38"/>
<path d="M129.5 18V21H128.5V20H127.5V21H126.5V18L128.5 19L129.5 18Z" fill="#141D38"/>
</g>
</g>
<defs>
<clipPath id="clip0_2_279">
<rect width="151" height="55" fill="white" transform="translate(0.5)"/>
</clipPath>
<clipPath id="clip1_2_279">
<rect width="151" height="55" fill="white" transform="translate(0.5)"/>
</clipPath>
</defs>
</svg>
