<svg width="23" height="17" viewBox="0 0 23 17" fill="none" xmlns="http://www.w3.org/2000/svg">
<path d="M22.9989 14.056C22.9989 14.7338 22.7297 15.3838 22.2504 15.8631C21.7711 16.3423 21.1211 16.6116 20.4433 16.6116H15.332V0H20.4433C21.1211 0 21.7711 0.269253 22.2504 0.748527C22.7297 1.2278 22.9989 1.87784 22.9989 2.55563V14.056Z" fill="#ED2939"/>
<path d="M2.55563 0C1.87784 0 1.2278 0.269253 0.748527 0.748527C0.269253 1.2278 0 1.87784 0 2.55563L0 14.056C0 14.7338 0.269253 15.3838 0.748527 15.8631C1.2278 16.3423 1.87784 16.6116 2.55563 16.6116H7.66689V0H2.55563Z" fill="#002495"/>
<path d="M7.66864 0H15.3355V16.6116H7.66864V0Z" fill="#EEEEEE"/>
</svg>
