<svg width="44" height="32" viewBox="0 0 44 32" fill="none" xmlns="http://www.w3.org/2000/svg">
<path fill-rule="evenodd" clip-rule="evenodd" d="M21.5468 15.8191L13.5311 24.9983L13.2629 20.6926C7.78327 19.9088 3.58558 21.4137 0.59668 25.7334C0.631515 17.2335 6.15644 12.7884 12.7264 12.1057L12.4512 7.71289L21.5468 15.8191Z" fill="#0B63E5"/>
<path fill-rule="evenodd" clip-rule="evenodd" d="M27.4306 13.0498C29.0609 13.0498 30.3811 14.3701 30.3811 16.0004C30.3811 17.6307 29.0609 18.951 27.4306 18.951C25.8003 18.951 24.48 17.6307 24.48 16.0004C24.48 14.3701 25.8037 13.0498 27.4306 13.0498Z" fill="#0B63E5"/>
<path fill-rule="evenodd" clip-rule="evenodd" d="M39.5744 26.4542L37.2788 28.7498C36.6761 29.3525 35.6833 29.3525 35.0806 28.7498L33.2309 26.9001C32.2764 27.4087 31.2522 27.7988 30.1723 28.0496V30.4463C30.1723 31.2998 29.4721 32 28.6186 32H25.372C24.5185 32 23.8183 31.2998 23.8183 30.4463V27.8302C22.7593 27.5097 21.7595 27.0533 20.8433 26.4751L19.1468 28.1716C18.5442 28.7742 17.5514 28.7742 16.9487 28.1716L15.9106 27.1369L15.9385 27.1056L20.4915 21.8942C22.1566 23.845 24.6369 25.0851 27.4029 25.0851C32.4192 25.0851 36.488 21.0163 36.488 16.0035C36.488 10.9872 32.4192 6.91835 27.4029 6.91835C24.8912 6.91835 22.6165 7.93904 20.9722 9.58676L19.2966 9.52406L15.0571 5.74788C15.1094 5.67472 15.1651 5.60853 15.2278 5.54235L17.5235 3.24668C18.1261 2.64402 19.119 2.64402 19.7216 3.24668L21.5714 5.09645C22.5259 4.58437 23.5501 4.19421 24.63 3.94688V1.55018C24.6369 0.700196 25.3371 0 26.1906 0H29.4338C30.2873 0 30.9875 0.700196 30.9875 1.55367V4.16982C32.0465 4.49031 33.0462 4.95014 33.9624 5.52493L35.6589 3.82843C36.2616 3.22578 37.2544 3.22578 37.857 3.82843L40.1527 6.1241C40.7554 6.72676 40.7554 7.71957 40.1527 8.32223L38.3029 10.172C38.815 11.1265 39.2052 12.1507 39.4525 13.2306H41.8492C42.6992 13.2306 43.4029 13.9308 43.4029 14.7842V18.0309C43.4029 18.8844 42.7027 19.5846 41.8492 19.5846H39.2365C38.916 20.6436 38.4597 21.6434 37.8814 22.5595L39.5779 24.256C40.1806 24.8587 40.1806 25.848 39.5744 26.4542Z" fill="#0B63E5"/>
</svg>
