<svg width="152" height="56" viewBox="0 0 152 56" fill="none" xmlns="http://www.w3.org/2000/svg">
<g clip-path="url(#clip0_2_130)">
<g clip-path="url(#clip1_2_130)">
<mask id="mask0_2_130" style="mask-type:luminance" maskUnits="userSpaceOnUse" x="0" y="0" width="151" height="54">
<path d="M150.5 0H0.5V54H150.5V0Z" fill="white"/>
</mask>
<g mask="url(#mask0_2_130)">
<mask id="mask1_2_130" style="mask-type:luminance" maskUnits="userSpaceOnUse" x="0" y="0" width="151" height="54">
<path d="M150.5 0H0.5V54H150.5V0Z" fill="white"/>
</mask>
<g mask="url(#mask1_2_130)">
<path d="M61.5 19H64.5V36H61.5V19Z" fill="#141D38"/>
<path d="M74.5 22.9998C76.1639 22.9998 77.4948 23.0528 78.5 23.9998C79.5053 24.9467 80.5 27.1381 80.5 28.9998V35.9998H77.5V28.9998C77.5 27.8762 77.0432 26.5614 76.5 25.9998C75.9561 25.422 75.505 25.9998 74.5 25.9998C73.3629 25.9998 72.1589 26.3257 71.5 26.9998C70.8409 27.6579 70.5 27.7482 70.5 28.9998V35.9998H67.5V22.9998H70.5V24.9998C71.0108 24.4059 71.7255 23.3047 72.5 22.9998C73.2745 22.6949 73.5279 22.9998 74.5 22.9998Z" fill="#141D38"/>
<path d="M96.5 23L90.5 36H87.5L81.5 23H84.5L89.5 33L93.5 23H96.5Z" fill="#141D38"/>
<path d="M109.5 30C109.5 30.222 109.535 30.5903 109.5 31H98.5C98.6886 32.0067 99.7137 32.4027 100.5 33C101.303 33.5802 102.321 34 103.5 34C105.004 34 105.525 33.9896 106.5 33L108.5 35C107.885 35.7338 107.44 35.6247 106.5 36C105.558 36.3756 104.679 37 103.5 37C101.995 37 100.646 36.5969 99.5 36C98.3551 35.4027 97.1324 35.0578 96.5 34C95.8838 32.9251 95.5 31.3478 95.5 30C95.5 28.669 95.9016 27.0579 96.5 26C97.1146 24.925 97.423 24.5971 98.5 24C99.5769 23.4028 101.149 23 102.5 23C103.832 23 105.457 23.4028 106.5 24C107.56 24.5801 107.918 24.9251 108.5 26C109.098 27.0579 109.5 28.601 109.5 30ZM102.5 26C101.474 26 100.218 25.3856 99.5 26C98.7988 26.5972 98.6539 27.9933 98.5 29H106.5C106.363 28.0104 106.2 26.6143 105.5 26C104.799 25.3856 103.542 26 102.5 26Z" fill="#141D38"/>
<path d="M113.5 25C114.432 23.6367 116.153 23 118.5 23V26C118.224 25.9512 117.725 25 117.5 25C116.241 25 115.208 26.3021 114.5 27C113.793 27.6816 113.5 28.7014 113.5 30V36H110.5V23H113.5V25Z" fill="#141D38"/>
<path d="M128.5 35C128.126 35.2913 128.045 35.8544 127.5 36C126.973 36.1459 126.095 36 125.5 36C124.003 36 122.317 35.7446 121.5 35C120.684 34.2554 120.5 33.4242 120.5 32V25H118.5V23H120.5V20H123.5V23H127.5V25H123.5V32C123.5 32.6314 124.178 32.6599 124.5 33C124.823 33.3237 124.887 33 125.5 33C126.215 33 127.024 33.356 127.5 33L128.5 35Z" fill="#141D38"/>
<path fill-rule="evenodd" clip-rule="evenodd" d="M53.5 28C53.5 36.8367 46.3367 44 37.5 44C28.6635 44 21.5 36.8367 21.5 28C21.5 19.1635 28.6635 12 37.5 12C46.3367 12 53.5 19.1635 53.5 28ZM48.5 28C48.5 34.0592 43.5593 39 37.5 39C37.0799 39 36.9079 39.0458 36.5 39C42.0141 38.4206 46.5 33.6678 46.5 28C46.5 22.3609 41.9743 17.617 36.5 17C36.8813 16.96 37.1081 17 37.5 17C43.5593 17 48.5 21.9408 48.5 28ZM33.5 36C37.116 35.3613 40.5 31.8724 40.5 28C40.5 24.1275 37.116 20.6385 33.5 20C33.9376 19.9242 35.0407 20 35.5 20C39.8316 20 43.5 23.6684 43.5 28C43.5 32.3316 39.8316 36 35.5 36C35.0407 36 33.9376 36.0756 33.5 36Z" fill="#141D38"/>
</g>
</g>
</g>
</g>
<defs>
<clipPath id="clip0_2_130">
<rect width="151" height="55" fill="white" transform="translate(0.5)"/>
</clipPath>
<clipPath id="clip1_2_130">
<rect width="151" height="55" fill="white" transform="translate(0.5)"/>
</clipPath>
</defs>
</svg>
