<svg width="16" height="20" viewBox="0 0 16 20" fill="none" xmlns="http://www.w3.org/2000/svg">
<path fill-rule="evenodd" clip-rule="evenodd" d="M0.727051 19.2858C0.727051 18.8913 1.05266 18.5715 1.45432 18.5715H14.5452C14.9469 18.5715 15.2725 18.8913 15.2725 19.2858C15.2725 19.6803 14.9469 20.0001 14.5452 20.0001H1.45432C1.05266 20.0001 0.727051 19.6803 0.727051 19.2858Z" fill="#B0B0B0"/>
<path fill-rule="evenodd" clip-rule="evenodd" d="M8.00013 5.71422C6.79515 5.71422 5.81832 6.67361 5.81832 7.85707C5.81832 9.04054 6.79515 9.99993 8.00013 9.99993C9.20512 9.99993 10.182 9.04054 10.182 7.85707C10.182 6.67361 9.20512 5.71422 8.00013 5.71422ZM4.36377 7.85707C4.36377 5.88463 5.99182 4.28564 8.00013 4.28564C10.0084 4.28564 11.6365 5.88463 11.6365 7.85707C11.6365 9.82952 10.0084 11.4285 8.00013 11.4285C5.99182 11.4285 4.36377 9.82952 4.36377 7.85707Z" fill="#B0B0B0"/>
<path fill-rule="evenodd" clip-rule="evenodd" d="M8 1.42857C6.26404 1.42857 4.59918 2.10587 3.37166 3.31146C2.14415 4.51705 1.45455 6.15218 1.45455 7.85714C1.45455 10.8142 3.13589 13.5069 4.91244 15.5134C5.79183 16.5067 6.67309 17.3075 7.33465 17.8598C7.59629 18.0782 7.82272 18.257 8 18.3929C8.17728 18.257 8.40371 18.0782 8.66535 17.8598C9.32691 17.3075 10.2082 16.5067 11.0876 15.5134C12.8641 13.5069 14.5455 10.8142 14.5455 7.85714C14.5455 6.15218 13.8558 4.51705 12.6283 3.31146C11.4008 2.10587 9.73596 1.42857 8 1.42857ZM8 19.2857C7.58294 19.8709 7.58273 19.8707 7.5825 19.8706L7.5819 19.8702L7.5802 19.869L7.57482 19.8653L7.55633 19.8523C7.54061 19.8413 7.51819 19.8255 7.48952 19.8049C7.43217 19.7638 7.34976 19.7038 7.24587 19.6258C7.03816 19.4699 6.74416 19.2417 6.39262 18.9483C5.69055 18.3622 4.75362 17.5112 3.81483 16.4508C1.95502 14.3503 0 11.3286 0 7.85714C0 5.7733 0.842855 3.7748 2.34315 2.3013C3.84344 0.827804 5.87827 0 8 0C10.1217 0 12.1566 0.827804 13.6569 2.3013C15.1571 3.7748 16 5.7733 16 7.85714C16 11.3286 14.045 14.3503 12.1852 16.4508C11.2464 17.5112 10.3095 18.3622 9.60738 18.9483C9.25584 19.2417 8.96184 19.4699 8.75413 19.6258C8.65024 19.7038 8.56783 19.7638 8.51048 19.8049C8.48181 19.8255 8.45939 19.8413 8.44367 19.8523L8.42518 19.8653L8.4198 19.869L8.4181 19.8702L8.4175 19.8706C8.41727 19.8707 8.41706 19.8709 8 19.2857ZM8 19.2857L8.41706 19.8709C8.16665 20.043 7.83335 20.043 7.58294 19.8709L8 19.2857Z" fill="#B0B0B0"/>
</svg>
