<?xml version="1.0" encoding="utf-8"?>
<svg version="1.1" id="Layer_1" xmlns="http://www.w3.org/2000/svg" x="0px" y="0px" viewBox="0 0 17 17" style="enable-background:new 0 0 17 17;">
  <path d="M4.4,0c3.4,0,6.7,0,10.1,0c0,0.7,0,1.3,0,2c-2.6,0-5.2,0-7.8,0c0,0.1,0,0.1,0,0.1c0,1.7,0,3.3,0,5c0,0.1,0,0.1,0.1,0.1 c2.1,0,4.1,0,6.2,0c0.1,0,0.1,0,0.2,0c0,0.7,0,1.3,0,2c-2.2,0-4.4,0-6.6,0c0,1.1,0,2.1,0,3.2c1.2,0,2.4,0,3.6,0c0,0.6,0,1.1,0,1.7 c-1.2,0-2.4,0-3.6,0c0,1,0,1.9,0,2.9c-0.8,0-1.5,0-2.3,0c0-0.9,0-1.9,0-2.8c-0.7,0-1.3,0-1.9,0c0-0.6,0-1.1,0-1.7c0.6,0,1.3,0,1.9,0 C4.4,8.3,4.4,4.1,4.4,0z" style="fill: rgb(11, 99, 229);"/>
</svg>