<svg width="8" height="16" viewBox="0 0 8 16" fill="none" xmlns="http://www.w3.org/2000/svg">
<path fill-rule="evenodd" clip-rule="evenodd" d="M4.52174 8.80049V12.8005C5.74574 12.6741 6.26087 11.8857 6.26087 10.8445C6.26087 9.84169 5.86017 9.24849 4.52174 8.80049ZM3.47826 6.80049V3.20049C2.33983 3.36649 1.73913 4.13249 1.73913 4.97249C1.73913 5.81249 2.21357 6.43129 3.47826 6.80049ZM4.46609 7.09529L4.83896 7.20609C6.88139 7.76969 8 8.76729 8 10.7349C8 12.9981 6.44661 14.2821 4.46609 14.4485V16.0005H3.58852V14.4485C1.61565 14.2729 0.0546087 12.9521 0 10.7349H1.60765C1.74748 11.8157 2.33809 12.6101 3.58852 12.7669V8.74009L3.26991 8.64769C1.29704 8.10249 0.233044 7.04929 0.233044 5.17409C0.233044 3.10489 1.6313 1.73769 3.58852 1.56209V0.000488281H4.46609V1.56169C6.40765 1.74649 7.81357 3.13209 7.87583 5.22929H6.26017C6.1593 4.06529 5.46017 3.39089 4.46609 3.24289V7.09529Z" fill="#0B63E5"/>
</svg>
