<svg width="25" height="30" viewBox="0 0 25 30" fill="none" xmlns="http://www.w3.org/2000/svg">
<path d="M18.75 11.0527C18.75 19.4685 6.25001 19.4685 6.25001 11.0527H9.37497C9.37497 15.2685 15.625 15.2685 15.625 11.0527M25.0001 25.2631V30H0V25.2631C0 21.0474 8.32813 18.9474 12.5 18.9474C16.6719 18.9474 25.0001 21.0474 25.0001 25.2631ZM22.0313 25.2631C22.0313 24.2527 17.1406 21.9474 12.5 21.9474C7.8594 21.9474 2.96875 24.2527 2.96875 25.2631V27H22.0313M13.2813 0C13.7188 0 14.0625 0.347369 14.0625 0.789478V5.52632H15.625V1.57895C16.7308 2.09609 17.6573 2.93715 18.2842 3.99298C18.911 5.04882 19.2095 6.27067 19.1407 7.50001C19.1407 7.50001 20.2344 7.72106 20.3126 9.47369H4.68751C4.68751 7.72106 5.85938 7.50001 5.85938 7.50001C5.79056 6.27067 6.08895 5.04882 6.71585 3.99298C7.34275 2.93715 8.26922 2.09609 9.37497 1.57895V5.52632H10.9375V0.789478C10.9375 0.347369 11.2813 0 11.7188 0" fill="#0B63E5"/>
</svg>
