<svg width="38" height="32" viewBox="0 0 38 32" fill="none" xmlns="http://www.w3.org/2000/svg">
<path d="M36.7987 15.4146L30.9254 10.2075V2.53194C30.9254 1.93351 30.4415 1.44962 29.8443 1.44962H25.5173C24.9201 1.44962 24.4362 1.93351 24.4362 2.53194V4.45463L19.7177 0.272625C19.3074 -0.0908751 18.6938 -0.0908751 18.2824 0.272625L1.20137 15.4146C0.864756 15.7126 0.749044 16.1883 0.908002 16.6079C1.06813 17.0287 1.4702 17.3069 1.91902 17.3069H7.32711V30.9177C7.32711 31.5161 7.811 32 8.40826 32C9.00669 32 9.49058 31.5161 9.49058 30.9177V16.2257C9.49058 15.6285 9.00669 15.1446 8.40826 15.1446H4.76975L19 2.52609L24.7985 7.66652C25.1176 7.95054 25.5699 8.01834 25.9591 7.84418C26.3483 7.67003 26.5973 7.28432 26.5973 6.85771V3.61309H28.7619V10.6949C28.7619 11.0046 28.8928 11.2992 29.1266 11.5037L33.2303 15.1422H29.593C28.9934 15.1422 28.5106 15.6261 28.5106 16.2234V30.9165C28.5106 31.5149 28.9934 31.9988 29.593 31.9988C30.1902 31.9988 30.6741 31.5149 30.6741 30.9165V17.3057H36.081C36.5299 17.3057 36.9331 17.0287 37.0921 16.6068C37.251 16.1883 37.1341 15.7126 36.7987 15.4146Z" fill="#0B63E5"/>
<path d="M23.9394 21.6253L24.8031 16.4744C24.8031 15.814 24.2608 15.2705 23.5981 15.2705H14.4054C13.7415 15.2705 13.198 15.814 13.198 16.4744L14.0629 21.6253C15.171 21.7562 16.037 22.6913 16.037 23.8356C16.037 24.4807 15.7577 25.0605 15.3182 25.4672H22.6852C22.2458 25.0593 21.9664 24.4796 21.9664 23.8356C21.9652 22.6913 22.8313 21.7551 23.9394 21.6253Z" fill="#0B63E5"/>
<path d="M13.573 28.1276C13.573 28.7927 14.1153 29.335 14.7792 29.335V31.9975H15.4302V29.335H22.567V31.9975H23.218V29.335C23.8819 29.335 24.4242 28.7927 24.4242 28.1276V26.0693H13.573V28.1276Z" fill="#0B63E5"/>
<path d="M24.201 22.2031C23.2998 22.2031 22.5693 22.9336 22.5693 23.8348C22.5693 24.7359 23.2998 25.4664 24.201 25.4664C25.1022 25.4664 25.8327 24.7359 25.8327 23.8348C25.8327 22.9336 25.1022 22.2031 24.201 22.2031ZM24.6837 24.7266L24.8041 24.0113C24.8041 23.4502 24.6685 22.9956 24.4874 22.8647C24.9128 22.9909 25.2307 23.3708 25.2307 23.836C25.2307 24.2252 25.004 24.5513 24.6837 24.7266Z" fill="#0B63E5"/>
<path d="M15.432 23.8348C15.432 22.9336 14.7015 22.2031 13.8004 22.2031C12.8992 22.2031 12.1687 22.9336 12.1687 23.8348C12.1687 24.7359 12.8992 25.4664 13.8004 25.4664C14.7015 25.4664 15.432 24.7371 15.432 23.8348ZM13.3176 24.7266C12.9974 24.5524 12.7706 24.2252 12.7706 23.8336C12.7706 23.3696 13.0886 22.9897 13.514 22.8623C13.334 22.9944 13.1973 23.4479 13.1973 24.0078L13.3176 24.7266Z" fill="#0B63E5"/>
</svg>
