<svg width="37" height="36" viewBox="0 0 37 36" fill="none" xmlns="http://www.w3.org/2000/svg">
<path d="M29.1308 29.2394C29.0593 29.0651 29.0193 28.8735 29.0193 28.6735C29.0193 28.4734 29.0593 28.2819 29.1308 28.1075C29.2051 27.9332 29.3109 27.7731 29.4423 27.6416L29.4509 27.6302C29.5252 27.5559 29.611 27.4844 29.7024 27.4301C29.751 27.3987 29.8025 27.3701 29.8596 27.3444V24.9949H27.4273C27.353 25.5094 27.1072 25.9724 26.7527 26.3297C26.3097 26.7727 25.6952 27.0471 25.0178 27.0471H23.5515V33.4553H27.8532C27.876 33.4181 27.8989 33.381 27.9246 33.3438C27.9761 33.2695 28.0332 33.2009 28.0961 33.138C28.2304 33.0037 28.3934 32.8922 28.5763 32.8179C28.7506 32.7465 28.9421 32.7064 29.1422 32.7064C29.3394 32.7064 29.5338 32.7465 29.7082 32.8179C29.8911 32.8922 30.0511 33.0037 30.1883 33.138C30.3227 33.2724 30.4341 33.4353 30.5085 33.6182C30.5799 33.7926 30.6199 33.9841 30.6199 34.1842C30.6199 34.3814 30.5799 34.57 30.5085 34.7501C30.4341 34.933 30.3227 35.0959 30.1883 35.2303C30.054 35.3646 29.8911 35.4761 29.7082 35.5504C29.5338 35.6218 29.3423 35.6619 29.1422 35.6619C28.9479 35.6619 28.7621 35.6247 28.5877 35.5533L28.5763 35.5504C28.3934 35.4761 28.2333 35.3646 28.0961 35.2303C28.0132 35.1474 27.9389 35.0502 27.876 34.9502C27.8417 34.893 27.8103 34.8301 27.7846 34.7701H22.8941C22.7112 34.7701 22.5483 34.6958 22.4282 34.5757C22.3053 34.4528 22.231 34.2899 22.231 34.107V27.0471H19.0298V32.8608C19.0784 32.8865 19.127 32.9122 19.1755 32.9437C19.2641 32.998 19.347 33.0666 19.4185 33.138C19.5557 33.2752 19.6643 33.4353 19.7386 33.6182C19.8101 33.7926 19.8501 33.9841 19.8501 34.1842C19.8501 34.3785 19.8129 34.5643 19.7415 34.7387L19.7386 34.7501C19.6643 34.933 19.5528 35.0931 19.4185 35.2303C19.2842 35.3646 19.1212 35.4761 18.9383 35.5504C18.764 35.6218 18.5725 35.6619 18.3724 35.6619C18.1752 35.6619 17.9837 35.6218 17.8064 35.5504C17.6235 35.4761 17.4606 35.3646 17.3263 35.2303C17.1919 35.0959 17.0805 34.933 17.0061 34.7501C16.9347 34.5757 16.8947 34.3842 16.8947 34.1842C16.8947 33.9898 16.9318 33.804 17.0033 33.6297L17.0061 33.6182C17.0805 33.4353 17.1919 33.2752 17.3263 33.138C17.3977 33.0666 17.4749 33.0037 17.5606 32.9494L17.5721 32.9408C17.6178 32.9151 17.6664 32.8894 17.715 32.8637V27.0471H13.4448V30.0597C13.4448 30.2426 13.3705 30.4056 13.2504 30.5256C13.1304 30.6457 12.9674 30.72 12.7845 30.72H9.75479C9.73192 30.7657 9.7062 30.8086 9.67761 30.8543C9.62617 30.9315 9.56614 31.0058 9.49754 31.0744L9.48611 31.0858C9.35177 31.2202 9.18886 31.3316 9.00593 31.4059C8.83158 31.4774 8.64007 31.5174 8.44 31.5174C8.24564 31.5174 8.05985 31.4803 7.8855 31.4088L7.87406 31.4059C7.69114 31.3316 7.53108 31.2202 7.39388 31.0858C7.25954 30.9515 7.14807 30.7886 7.07376 30.6056C7.0023 30.4313 6.96229 30.2398 6.96229 30.0397C6.96229 29.8425 7.0023 29.651 7.07376 29.4738C7.14807 29.2909 7.25954 29.1279 7.39388 28.9936C7.53394 28.8621 7.69971 28.7506 7.88264 28.6763C8.05699 28.6049 8.24849 28.5649 8.44857 28.5649C8.64865 28.5649 8.84015 28.6049 9.0145 28.6763C9.18886 28.7506 9.34892 28.8564 9.4804 28.9907L9.49183 28.9993C9.56614 29.0736 9.6376 29.1594 9.69191 29.2508C9.72049 29.2994 9.75193 29.3509 9.77765 29.408H12.1271V26.9928C11.6612 26.8899 11.2439 26.6556 10.9209 26.3326C10.4894 25.901 10.2235 25.3122 10.2235 24.6662V23.097H3.20942V27.3987C3.24658 27.4216 3.28373 27.4444 3.32089 27.4702C3.3952 27.5216 3.46094 27.5788 3.52668 27.6416C3.66102 27.776 3.77249 27.9389 3.84681 28.1218C3.91826 28.2962 3.95828 28.4877 3.95828 28.6878C3.95828 28.885 3.91826 29.0793 3.84681 29.2537C3.77249 29.4366 3.66102 29.5967 3.52668 29.7339C3.39235 29.8682 3.22943 29.9797 3.0465 30.054C2.87215 30.1255 2.68064 30.1655 2.48057 30.1655C2.28335 30.1655 2.09471 30.1255 1.91464 30.054C1.73171 29.9797 1.56879 29.8682 1.43445 29.7339C1.30012 29.5995 1.18864 29.4366 1.11433 29.2537C1.04002 29.0736 1 28.8821 1 28.682C1 28.4877 1.03716 28.3019 1.10861 28.1275L1.11147 28.1161C1.18579 27.9332 1.29726 27.7731 1.43159 27.6359C1.51448 27.553 1.61166 27.4787 1.7117 27.4158C1.76601 27.3815 1.83175 27.3501 1.89177 27.3244V22.4368C1.89177 22.2539 1.96608 22.0909 2.08613 21.9709C2.20904 21.848 2.37195 21.7737 2.55488 21.7737H10.2235V18.5725H3.80393C3.77821 18.621 3.75248 18.6696 3.72104 18.7182C3.66674 18.8068 3.59814 18.8897 3.52668 18.9612C3.38949 19.0984 3.22943 19.207 3.0465 19.2813C2.87215 19.3528 2.68064 19.3928 2.48057 19.3928C2.28621 19.3928 2.10042 19.3556 1.92607 19.2842L1.91464 19.2813C1.73171 19.207 1.57165 19.0955 1.43445 18.9612C1.30012 18.8268 1.18864 18.6639 1.11433 18.481C1.04287 18.3066 1.00286 18.1151 1.00286 17.9151C1.00286 17.7178 1.04287 17.5263 1.11433 17.3491C1.18864 17.1662 1.30012 17.0033 1.43445 16.8689C1.56879 16.7346 1.73171 16.6231 1.91464 16.5488C2.09185 16.4745 2.28049 16.4345 2.48343 16.4345C2.67779 16.4345 2.86357 16.4716 3.03792 16.5431L3.04936 16.546C3.23228 16.6203 3.39235 16.7317 3.52954 16.8661C3.601 16.9375 3.66388 17.0147 3.72104 17.1005L3.72962 17.1119C3.75534 17.1576 3.78107 17.2062 3.80679 17.2548H10.2235V13.279C10.2235 13.1818 10.2293 13.0846 10.2407 12.9875H6.60501C6.42208 12.9875 6.25916 12.9131 6.13911 12.7931C6.01907 12.673 5.94475 12.5101 5.94475 12.3272V9.29747C5.89902 9.2746 5.85615 9.24888 5.81042 9.2203C5.73324 9.16885 5.65893 9.10882 5.59033 9.04023L5.5789 9.02879C5.44456 8.89446 5.33309 8.73154 5.25878 8.54861C5.18732 8.37426 5.14731 8.18276 5.14731 7.98268C5.14731 7.78832 5.18446 7.60253 5.25592 7.42818L5.25878 7.41675C5.33309 7.23382 5.44456 7.07376 5.5789 6.93656C5.71324 6.80223 5.87616 6.69075 6.05908 6.61644C6.23344 6.54498 6.42494 6.50497 6.62501 6.50497C6.82223 6.50497 7.01374 6.54498 7.19095 6.61644C7.37387 6.69075 7.53679 6.80223 7.67113 6.93656C7.80261 7.07662 7.91408 7.24239 7.98839 7.42532C8.05985 7.59967 8.09987 7.79118 8.09987 7.99125C8.09987 8.19133 8.05985 8.38283 7.98839 8.55718C7.91408 8.73154 7.80833 8.8916 7.67685 9.02308L7.66827 9.03451C7.59396 9.10882 7.50821 9.18028 7.41389 9.23459C7.3653 9.26317 7.31385 9.29461 7.25669 9.32033V11.6698H10.8438V11.687C10.8666 11.6612 10.8924 11.6355 10.9152 11.6126C11.3583 11.1696 11.9728 10.8952 12.6502 10.8952H14.025V3.20942H9.72906C9.7062 3.24658 9.68333 3.28373 9.65761 3.32089C9.60616 3.3952 9.54899 3.46094 9.48611 3.52668C9.35177 3.66102 9.18886 3.77249 9.00593 3.84681C8.83158 3.91826 8.64007 3.95828 8.44 3.95828C8.24278 3.95828 8.04842 3.91826 7.87406 3.84681C7.69114 3.77249 7.53108 3.66102 7.39388 3.52668C7.25954 3.39235 7.14807 3.22943 7.07376 3.0465C7.0023 2.86929 6.96229 2.68064 6.96229 2.47771C6.96229 2.28049 7.0023 2.09185 7.07376 1.91178C7.14807 1.72885 7.25954 1.56593 7.39388 1.43159C7.52822 1.29726 7.69114 1.18579 7.87406 1.11147C8.04842 1.04002 8.23992 1 8.44 1C8.63436 1 8.82014 1.03716 8.99449 1.10861L9.00593 1.11147C9.18886 1.18579 9.34892 1.29726 9.48611 1.43159C9.569 1.51448 9.64331 1.61166 9.7062 1.7117C9.74049 1.76601 9.77194 1.83175 9.80052 1.89177H14.6852C14.8682 1.89177 15.0311 1.96608 15.1511 2.08613C15.274 2.20904 15.3484 2.37195 15.3484 2.55488V10.8952H18.5496V3.80393C18.501 3.77821 18.4524 3.75248 18.4038 3.72104C18.3152 3.66674 18.2323 3.59814 18.1609 3.52668C18.0237 3.38949 17.9151 3.22943 17.8407 3.0465C17.7693 2.87215 17.7293 2.68064 17.7293 2.48057C17.7293 2.28621 17.7664 2.10042 17.8379 1.92607L17.8407 1.91464C17.9151 1.73171 18.0265 1.57165 18.1609 1.43445C18.2952 1.30012 18.4581 1.18864 18.6411 1.11433C18.8154 1.04287 19.0069 1.00286 19.207 1.00286C19.4042 1.00286 19.5957 1.04287 19.7729 1.11433C19.9558 1.18864 20.1188 1.30012 20.2531 1.43445C20.3874 1.56879 20.4989 1.73171 20.5732 1.91464C20.6447 2.08899 20.6847 2.28049 20.6847 2.48057C20.6847 2.67493 20.6475 2.86071 20.5761 3.03507L20.5732 3.0465C20.4989 3.22943 20.3874 3.38949 20.2531 3.52668C20.1816 3.59814 20.1045 3.66102 20.0187 3.71819L20.0073 3.72676C19.9616 3.75248 19.913 3.77821 19.8644 3.80393V10.8924H24.1317V6.60501C24.1317 6.42208 24.206 6.25916 24.3261 6.13911C24.4461 6.01907 24.6091 5.94475 24.792 5.94475H27.8246C27.8474 5.89902 27.8732 5.85615 27.9017 5.81042C27.9532 5.73324 28.0132 5.65893 28.0818 5.59033L28.0932 5.5789C28.2276 5.44456 28.3905 5.33309 28.5734 5.25878C28.7478 5.18732 28.9393 5.14731 29.1394 5.14731C29.3337 5.14731 29.5195 5.18446 29.6939 5.25592L29.7053 5.25878C29.8882 5.33309 30.0483 5.44456 30.1855 5.5789C30.3198 5.71324 30.4313 5.87616 30.5056 6.05908C30.5771 6.23344 30.6171 6.42494 30.6171 6.62501C30.6171 6.82223 30.5771 7.01374 30.5056 7.19095C30.4313 7.37387 30.3198 7.53679 30.1855 7.67113C30.0426 7.80261 29.8796 7.91408 29.6967 7.98839C29.5224 8.05985 29.3309 8.09987 29.1308 8.09987C28.9307 8.09987 28.7392 8.05985 28.5649 7.98839C28.3905 7.91408 28.2304 7.80833 28.099 7.67685L28.0875 7.66827C28.0132 7.59396 27.9418 7.50821 27.8875 7.41675C27.856 7.36816 27.8274 7.31671 27.8017 7.25954H25.4522V10.9295C25.9581 11.0181 26.4097 11.2639 26.7556 11.6098C27.1872 12.0414 27.453 12.6302 27.453 13.2761V13.5705H33.9126V9.26889C33.8755 9.24602 33.8383 9.22315 33.8012 9.19743C33.7268 9.14598 33.6611 9.08882 33.5982 9.02594C33.4639 8.8916 33.3524 8.72868 33.2781 8.54575C33.2066 8.3714 33.1666 8.1799 33.1666 7.97982C33.1666 7.7826 33.2066 7.58824 33.2781 7.41389C33.3524 7.23096 33.4639 7.0709 33.5982 6.9337C33.7326 6.79937 33.8955 6.6879 34.0784 6.61358C34.2528 6.54213 34.4443 6.50211 34.6443 6.50211C34.8416 6.50211 35.0331 6.54213 35.2103 6.61358C35.3932 6.6879 35.5561 6.79937 35.6904 6.9337C35.8248 7.06804 35.9363 7.23096 36.0106 7.41389C36.082 7.58824 36.122 7.77974 36.122 7.97982C36.122 8.17418 36.0849 8.35997 36.0134 8.53432L36.0106 8.54575C35.9363 8.72868 35.8248 8.88874 35.6904 9.02594C35.6076 9.10882 35.5104 9.18314 35.4103 9.24602C35.3532 9.28032 35.2903 9.31176 35.2303 9.34034V14.2251C35.2303 14.408 35.156 14.5709 35.0359 14.691C34.913 14.8139 34.7501 14.8882 34.5672 14.8882H27.453V18.0894H33.3181C33.3438 18.0408 33.3696 17.9922 33.401 17.9436C33.4582 17.855 33.5239 17.7721 33.5954 17.7007C33.7326 17.5635 33.8926 17.4549 34.0755 17.3806C34.2499 17.3091 34.4414 17.2691 34.6415 17.2691C34.8358 17.2691 35.0216 17.3063 35.196 17.3777L35.2074 17.3806C35.3903 17.4549 35.5504 17.5664 35.6876 17.7007C35.8219 17.835 35.9334 17.9979 36.0077 18.1809C36.0792 18.3552 36.1192 18.5467 36.1192 18.7468C36.1192 18.944 36.0792 19.1355 36.0077 19.3127C35.9334 19.4957 35.8219 19.6586 35.6876 19.7929C35.5533 19.9273 35.3903 20.0387 35.2074 20.113C35.0331 20.1845 34.8415 20.2245 34.6415 20.2245C34.4471 20.2245 34.2613 20.1874 34.087 20.1159L34.0755 20.113C33.8926 20.0387 33.7326 19.9273 33.5954 19.7929C33.5239 19.7215 33.461 19.6443 33.4039 19.5585L33.3953 19.5471C33.3696 19.5014 33.3438 19.4528 33.3181 19.4042H27.453V23.6716H30.517C30.7 23.6716 30.8629 23.7459 30.9829 23.8659C31.103 23.986 31.1773 24.1489 31.1773 24.3318V27.3644C31.223 27.3873 31.2659 27.413 31.3116 27.4444C31.3888 27.4959 31.4631 27.5559 31.5317 27.6245L31.5431 27.6359C31.6775 27.7703 31.789 27.9332 31.8633 28.1161C31.9347 28.2905 31.9747 28.482 31.9747 28.682C31.9747 28.8764 31.9376 29.0622 31.8661 29.2365L31.8633 29.248C31.789 29.4309 31.6775 29.591 31.5431 29.7282C31.4088 29.8625 31.2459 29.974 31.063 30.0483C30.8886 30.1197 30.6971 30.1598 30.497 30.1598C30.2998 30.1598 30.1083 30.1197 29.9311 30.0483C29.7482 29.974 29.5852 29.8625 29.4509 29.7282C29.3194 29.5881 29.2051 29.4223 29.1308 29.2394ZM16.2887 15.9029H21.3878C21.7851 15.9029 22.1081 16.2258 22.1081 16.6231V21.3192C22.1081 21.7165 21.7851 22.0395 21.3878 22.0395H16.2887C15.8914 22.0395 15.5684 21.7165 15.5684 21.3192V16.6231C15.5684 16.2258 15.8914 15.9029 16.2887 15.9029ZM25.0206 12.17H12.653C12.3701 12.17 12.11 12.2872 11.9213 12.4787C11.7184 12.6816 11.5926 12.9646 11.5926 13.279V24.6634C11.5926 24.9778 11.7184 25.2607 11.9213 25.4637C12.1128 25.6552 12.3701 25.7724 12.653 25.7724H25.0206C25.3036 25.7724 25.5637 25.6552 25.7523 25.4637C25.9553 25.2607 26.081 24.9778 26.081 24.6634V13.279C26.081 12.9646 25.9553 12.6816 25.7523 12.4787C25.5637 12.2872 25.3036 12.17 25.0206 12.17Z" fill="#0B63E5" stroke="#0B63E5" stroke-width="0.68"/>
</svg>
