<svg width="32" height="30" viewBox="0 0 32 30" fill="none" xmlns="http://www.w3.org/2000/svg">
<path d="M19.7333 27.033L28.8 24.3223C28.673 24.1026 28.4892 23.9136 28.2484 23.7554C28.0077 23.5971 27.7344 23.5175 27.4286 23.5165H19.7333C19.0476 23.5165 18.5016 23.4921 18.0953 23.4432C17.6889 23.3944 17.2699 23.2968 16.8381 23.1502L14.6667 22.4543C14.2603 22.3321 13.9682 22.0879 13.7905 21.7216C13.6127 21.3553 13.5873 20.9768 13.7143 20.5861C13.8413 20.1954 14.0891 19.9082 14.4579 19.7246C14.8267 19.5409 15.2137 19.5107 15.6191 19.6337L17.2191 20.1465C17.6508 20.2687 18.14 20.3663 18.6865 20.4396C19.233 20.5128 19.9756 20.5617 20.9143 20.5861H21.3333C21.3333 20.3175 21.2511 20.0611 21.0865 19.8169C20.9219 19.5726 20.7249 19.414 20.4952 19.3407L11.581 16.1905H9.14286V24.2491L19.7333 27.033ZM18.9334 29.8901L9.14286 27.2527C8.93972 27.8877 8.53946 28.4005 7.94208 28.7913C7.34476 29.182 6.72915 29.3773 6.09524 29.3773H3.04762C2.20952 29.3773 1.49232 29.0906 0.896001 28.5173C0.299683 27.9439 0.00101611 27.2537 0 26.4469V16.1905C0 15.3846 0.298667 14.695 0.896001 14.1216C1.49334 13.5482 2.21054 13.2611 3.04762 13.2601H11.581C11.7587 13.2601 11.9365 13.2786 12.1143 13.3158C12.2921 13.3529 12.4572 13.3954 12.6095 13.4433L21.5619 16.63C22.4 16.9231 23.0796 17.4359 23.6008 18.1685C24.1219 18.9011 24.382 19.707 24.381 20.5861H27.4286C28.6984 20.5861 29.7778 20.989 30.6667 21.7949C31.5555 22.6007 32 23.663 32 24.9817C32 25.5189 31.8537 25.9405 31.5612 26.2462C31.2686 26.5519 30.818 26.802 30.2096 26.9964L20.6857 29.8535C20.4064 29.9512 20.1143 30 19.8096 30C19.5048 30 19.2127 29.9634 18.9334 29.8901ZM3.04762 26.4469H6.09524V16.1905H3.04762V26.4469ZM19.8096 1.6465e-05C20.1143 1.6465e-05 20.413 0.0425068 20.7055 0.127489C20.9981 0.212471 21.2836 0.35313 21.5619 0.549467L29.181 5.78757C29.5873 6.05618 29.9048 6.39806 30.1334 6.81321C30.3619 7.22835 30.4762 7.68011 30.4762 8.1685V16.1905C30.4762 16.6056 30.33 16.9539 30.0373 17.2352C29.7448 17.5165 29.3831 17.6566 28.9524 17.6557C28.5217 17.6547 28.16 17.5141 27.8675 17.2337C27.5749 16.9534 27.4286 16.6056 27.4286 16.1905V8.1319L19.8096 3.00368L12.1905 8.1319V8.86452C12.1905 9.27963 12.0442 9.62788 11.7516 9.9092C11.459 10.1905 11.0974 10.3306 10.6667 10.3297C10.2359 10.3287 9.87428 10.188 9.58173 9.90767C9.28918 9.6274 9.14286 9.27963 9.14286 8.86452V8.1685C9.14286 7.68011 9.25715 7.22835 9.48574 6.81321C9.71432 6.39806 10.0318 6.05618 10.4381 5.78757L18.0571 0.549467C18.3365 0.354107 18.6225 0.213448 18.9151 0.127489C19.2076 0.04153 19.5058 -0.000960393 19.8096 1.6465e-05ZM18.2857 8.86452C18.4889 8.86452 18.6666 8.79124 18.8191 8.64468C18.9715 8.49821 19.0476 8.32725 19.0476 8.1319C19.0476 7.93652 18.9715 7.76558 18.8191 7.61907C18.6666 7.47254 18.4889 7.39929 18.2857 7.39929C18.0826 7.39929 17.9048 7.47254 17.7524 7.61907C17.6 7.76558 17.5238 7.93652 17.5238 8.1319C17.5238 8.32725 17.6 8.49821 17.7524 8.64468C17.9048 8.79124 18.0826 8.86452 18.2857 8.86452ZM21.3333 8.86452C21.5365 8.86452 21.7143 8.79124 21.8667 8.64468C22.0191 8.49821 22.0952 8.32725 22.0952 8.1319C22.0952 7.93652 22.0191 7.76558 21.8667 7.61907C21.7143 7.47254 21.5365 7.39929 21.3333 7.39929C21.1302 7.39929 20.9524 7.47254 20.8 7.61907C20.6477 7.76558 20.5715 7.93652 20.5715 8.1319C20.5715 8.32725 20.6477 8.49821 20.8 8.64468C20.9524 8.79124 21.1302 8.86452 21.3333 8.86452ZM18.2857 11.7949C18.4889 11.7949 18.6666 11.7217 18.8191 11.5751C18.9715 11.4286 19.0476 11.2577 19.0476 11.0623C19.0476 10.867 18.9715 10.696 18.8191 10.5494C18.6666 10.403 18.4889 10.3297 18.2857 10.3297C18.0826 10.3297 17.9048 10.403 17.7524 10.5494C17.6 10.696 17.5238 10.867 17.5238 11.0623C17.5238 11.2577 17.6 11.4286 17.7524 11.5751C17.9048 11.7217 18.0826 11.7949 18.2857 11.7949ZM21.3333 11.7949C21.5365 11.7949 21.7143 11.7217 21.8667 11.5751C22.0191 11.4286 22.0952 11.2577 22.0952 11.0623C22.0952 10.867 22.0191 10.696 21.8667 10.5494C21.7143 10.403 21.5365 10.3297 21.3333 10.3297C21.1302 10.3297 20.9524 10.403 20.8 10.5494C20.6477 10.696 20.5715 10.867 20.5715 11.0623C20.5715 11.2577 20.6477 11.4286 20.8 11.5751C20.9524 11.7217 21.1302 11.7949 21.3333 11.7949Z" fill="#0B63E5" stroke="white" stroke-width="0.598048"/>
</svg>
