<svg width="32" height="32" viewBox="0 0 32 32" fill="none" xmlns="http://www.w3.org/2000/svg">
<path d="M16 31C7.72458 31 1 24.2755 1 16C1 7.72458 7.72458 1 16 1C24.2754 1 31 7.72458 31 16C31 24.2755 24.2754 31 16 31ZM16 2.76695C8.70341 2.76695 2.76696 8.70338 2.76696 16C2.76696 23.2966 8.70341 29.2331 16 29.2331C23.2966 29.2331 29.2331 23.2966 29.2331 16C29.2331 8.70338 23.2966 2.76695 16 2.76695ZM24.4407 14.7543H7.55933C7.05086 14.7543 6.61866 14.3347 6.61866 13.8136C6.61866 13.2924 7.03814 12.8729 7.55933 12.8729H21.2246L19.0508 11.5128C18.6441 11.2585 18.5169 10.6991 18.7585 10.2797L18.8348 10.1526C19.0763 9.73305 19.6229 9.59323 20.0297 9.8475L24.9491 12.9364C25.2289 13.1144 25.3687 13.4195 25.356 13.7373C25.356 13.7627 25.3687 13.7754 25.3687 13.8008C25.3814 14.3347 24.9491 14.7543 24.4407 14.7543ZM6.63136 18.7712V18.7585C6.65679 18.4661 6.80933 18.2246 7.03814 18.0593C7.05086 18.0467 7.06357 18.0467 7.07628 18.0339C7.13984 17.9958 7.2034 17.9576 7.27967 17.9322C7.34323 17.9068 7.39407 17.9068 7.45763 17.8941C7.48306 17.8941 7.52119 17.8814 7.54662 17.8814H24.428C24.9365 17.8814 25.3687 18.3008 25.3687 18.8221C25.3687 19.3433 24.9491 19.7627 24.428 19.7627H10.7627L12.8729 21.1102C13.2797 21.3644 13.4068 21.9237 13.1653 22.3433L13.089 22.4703C12.8475 22.8899 12.3136 23.0297 11.9068 22.7755L7.02544 19.6737C6.75849 19.5085 6.63136 19.2034 6.63136 18.8983C6.63136 18.8729 6.61866 18.8475 6.61866 18.8221C6.63136 18.7966 6.63136 18.7839 6.63136 18.7712Z" fill="#0B63E5" stroke="#0B63E5" stroke-width="0.847235"/>
</svg>
