<svg width="32" height="32" viewBox="0 0 32 32" fill="none" xmlns="http://www.w3.org/2000/svg">
<path d="M23.466 14.4002H21.2743C21.1692 14.055 21.0303 13.7211 20.8596 13.4033L22.4107 11.8521C22.5108 11.752 22.5671 11.6161 22.5671 11.4745C22.5671 11.3329 22.5108 11.1971 22.4107 11.0969L20.9031 9.58928C20.803 9.48915 20.6671 9.4329 20.5255 9.4329C20.3839 9.4329 20.2481 9.48915 20.1479 9.58928L18.5968 11.1405C18.279 10.9697 17.9451 10.8308 17.6 10.7257V8.53398C17.6 8.46385 17.5862 8.39441 17.5594 8.32961C17.5325 8.26482 17.4932 8.20594 17.4436 8.15635C17.394 8.10675 17.3351 8.06741 17.2703 8.04057C17.2055 8.01373 17.1361 7.99991 17.0659 7.99991H14.934C14.8639 7.99991 14.7944 8.01373 14.7296 8.04058C14.6648 8.06742 14.606 8.10676 14.5564 8.15635C14.5068 8.20595 14.4675 8.26482 14.4406 8.32962C14.4138 8.39441 14.4 8.46385 14.4 8.53398V10.7257C14.0545 10.8303 13.7202 10.9688 13.402 11.1392L11.8521 9.5893C11.7519 9.48917 11.6161 9.43292 11.4745 9.43292C11.3329 9.43292 11.197 9.48917 11.0969 9.5893L9.58933 11.0969C9.48919 11.1971 9.43293 11.3329 9.43293 11.4745C9.43293 11.6162 9.48919 11.752 9.58933 11.8522L11.1392 13.4021C10.9688 13.7203 10.8303 14.0547 10.7257 14.4002H8.53404C8.46391 14.4002 8.39446 14.414 8.32966 14.4408C8.26486 14.4677 8.20599 14.507 8.1564 14.5566C8.1068 14.6062 8.06747 14.6651 8.04064 14.7299C8.0138 14.7947 7.99999 14.8641 8 14.9343V17.0662C7.99999 17.2079 8.05625 17.3437 8.1564 17.4439C8.25655 17.544 8.3924 17.6003 8.53404 17.6003H10.7257C10.8308 17.9454 10.9697 18.2793 11.1404 18.5971L9.58934 20.1483C9.4892 20.2485 9.43294 20.3843 9.43294 20.5259C9.43294 20.6676 9.4892 20.8034 9.58934 20.9036L11.0969 22.4112C11.1465 22.4608 11.2053 22.5001 11.2701 22.5269C11.3349 22.5538 11.4044 22.5676 11.4745 22.5676C11.5446 22.5676 11.6141 22.5538 11.6789 22.5269C11.7436 22.5001 11.8025 22.4608 11.8521 22.4112L13.4032 20.86C13.721 21.0308 14.0549 21.1697 14.4 21.2748V23.4665C14.4 23.6081 14.4562 23.744 14.5564 23.8441C14.6565 23.9443 14.7924 24.0006 14.934 24.0006H17.066C17.1361 24.0006 17.2055 23.9868 17.2703 23.9599C17.3351 23.9331 17.394 23.8937 17.4436 23.8441C17.4932 23.7946 17.5325 23.7357 17.5594 23.6709C17.5862 23.6061 17.6 23.5366 17.6 23.4665V21.2748C17.9455 21.1702 18.2798 21.0316 18.598 20.8612L20.1479 22.4112C20.1975 22.4608 20.2564 22.5001 20.3211 22.5269C20.3859 22.5538 20.4554 22.5676 20.5255 22.5676C20.5956 22.5676 20.6651 22.5538 20.7299 22.5269C20.7947 22.5001 20.8535 22.4608 20.9031 22.4112L22.4107 20.9036C22.5108 20.8034 22.5671 20.6676 22.5671 20.5259C22.5671 20.3843 22.5108 20.2485 22.4107 20.1483L20.8608 18.5984C21.0312 18.2801 21.1697 17.9458 21.2743 17.6003H23.466C23.5361 17.6003 23.6055 17.5865 23.6703 17.5597C23.7351 17.5328 23.794 17.4935 23.8436 17.4439C23.8932 17.3943 23.9325 17.3354 23.9594 17.2706C23.9862 17.2058 24 17.1364 24 17.0662V14.9343C24 14.8641 23.9862 14.7947 23.9594 14.7299C23.9325 14.6651 23.8932 14.6062 23.8436 14.5566C23.794 14.507 23.7351 14.4677 23.6703 14.4408C23.6055 14.414 23.5361 14.4002 23.466 14.4002ZM16 18.4892C15.5077 18.4893 15.0263 18.3434 14.6169 18.07C14.2075 17.7965 13.8884 17.4078 13.6999 16.953C13.5115 16.4982 13.4621 15.9977 13.5581 15.5149C13.6541 15.0321 13.8912 14.5885 14.2393 14.2404C14.5874 13.8923 15.031 13.6552 15.5138 13.5591C15.9967 13.463 16.4973 13.5123 16.9521 13.7007C17.407 13.8891 17.7958 14.2081 18.0693 14.6174C18.3429 15.0267 18.4889 15.508 18.4889 16.0002C18.4889 16.6603 18.2267 17.2934 17.76 17.7602C17.2932 18.2269 16.6601 18.4892 16 18.4892ZM19.2426 28.7553L19.9395 31.513C16.8156 32.3015 13.5265 32.1294 10.502 31.0191C7.47755 29.9087 4.85842 27.9119 2.98696 25.2896C1.1155 22.6672 0.0787739 19.5414 0.0122815 16.3205C-0.054211 13.0997 0.852623 9.93368 2.61426 7.23635L0 4.62197H7.11112V11.7334L4.67854 9.30073C3.35863 11.5386 2.73036 14.1169 2.87283 16.711C3.0153 19.3052 3.92215 21.7992 5.4792 23.879C7.03626 25.9589 9.17391 27.5317 11.623 28.3994C14.0722 29.2671 16.7233 29.391 19.2426 28.7553ZM29.382 24.7605L32 27.3785H24.8889V20.2671L27.3172 22.6955C28.6377 20.4583 29.2666 17.8805 29.1246 15.2866C28.9826 12.6928 28.0761 10.1989 26.5193 8.11921C24.9625 6.0395 22.825 4.46694 20.3761 3.59961C17.9272 2.73228 15.2763 2.60896 12.7574 3.2452L12.0605 0.487459C15.184 -0.301464 18.4729 -0.129682 21.4972 0.980347C24.5215 2.09038 27.1404 4.087 29.0116 6.70917C30.8828 9.33134 31.9193 12.457 31.9853 15.6776C32.0514 18.8982 31.1441 22.0637 29.382 24.7605Z" fill="#0B63E5"/>
</svg>
