<svg width="24" height="24" viewBox="0 0 24 24" fill="none" xmlns="http://www.w3.org/2000/svg">
<path d="M14.7653 21.1993C12.2853 21.1993 8.38533 20.3793 7.42533 19.6993C7.20533 19.5393 7.08534 19.2993 7.08534 19.0393V11.2193C7.08534 10.9793 7.20534 10.7393 7.38534 10.5993C7.44534 10.5593 8.84534 9.45931 10.3053 8.63931C12.1253 7.63931 13.3853 6.23933 13.6853 5.35933C14.0453 4.27933 14.5653 2.79932 16.2053 2.79932C16.9853 2.79932 17.6253 3.23932 17.9653 3.99932C18.6453 5.55932 17.9253 7.71931 16.7253 9.41931C17.5253 9.59931 18.5253 9.85931 19.1253 10.0393C20.2253 10.3793 20.9453 11.1793 21.1053 12.1593C21.2453 13.1593 20.7453 14.1793 19.6853 14.9593C18.9053 17.0593 17.5653 20.3793 16.5853 20.9193C16.2053 21.1193 15.5453 21.1993 14.7653 21.1993ZM8.68534 18.5593C10.2053 19.1993 14.8853 19.8593 15.7653 19.5193C16.2253 19.0993 17.4053 16.4193 18.2253 14.1593C18.2853 13.9993 18.3853 13.8593 18.5253 13.7593C19.1853 13.3193 19.5253 12.7993 19.4653 12.3593C19.4053 11.9993 19.0853 11.6993 18.6053 11.5393C17.6053 11.2193 15.1253 10.6793 15.0853 10.6793C14.8053 10.6193 14.5853 10.4193 14.4853 10.1393C14.3853 9.85931 14.4653 9.55933 14.6653 9.35933C16.4653 7.41933 16.7853 5.43931 16.4453 4.63931C16.3453 4.39931 16.2253 4.39932 16.1653 4.39932C15.7653 4.39932 15.5853 4.67932 15.1653 5.87932C14.6853 7.27932 13.0253 8.95931 11.0453 10.0393C10.0853 10.5593 9.12534 11.2593 8.64534 11.6193V18.5593H8.68534ZM5.52533 19.1193V11.1393C5.52533 10.4193 4.94533 9.83931 4.22533 9.83931C3.50533 9.83931 2.92533 10.4193 2.92533 11.1393V19.1193C2.92533 19.8393 3.50533 20.4193 4.22533 20.4193C4.92533 20.4193 5.52533 19.8193 5.52533 19.1193Z" fill="#0B63E5"/>
</svg>
