<svg width="20" height="20" viewBox="0 0 20 20" fill="none" xmlns="http://www.w3.org/2000/svg">
<path d="M2.25895 14.586C1.14076 12.701 0.749158 10.4727 1.15768 8.31938C1.56621 6.16609 2.74675 4.23599 4.47764 2.89152C6.20853 1.54705 8.37069 0.88069 10.5581 1.01757C12.7455 1.15446 14.8078 2.08516 16.3575 3.63493C17.9073 5.1847 18.838 7.24691 18.9749 9.43434C19.1118 11.6218 18.4455 13.7839 17.101 15.5148C15.7565 17.2457 13.8264 18.4263 11.6732 18.8348C9.51986 19.2433 7.29149 18.8517 5.40649 17.7336L5.40651 17.7335L2.29808 18.6216C2.16947 18.6583 2.03338 18.66 1.90391 18.6265C1.77443 18.5929 1.65628 18.5254 1.5617 18.4308C1.46713 18.3362 1.39956 18.2181 1.36601 18.0886C1.33246 17.9591 1.33415 17.823 1.37089 17.6944L2.25901 14.586L2.25895 14.586Z" stroke="#0B63E5" stroke-width="1.40909" stroke-linecap="round" stroke-linejoin="round"/>
<path d="M10.0009 11.1177C10.6223 11.1177 11.1259 10.614 11.1259 9.99268C11.1259 9.37136 10.6223 8.86768 10.0009 8.86768C9.37963 8.86768 8.87595 9.37136 8.87595 9.99268C8.87595 10.614 9.37963 11.1177 10.0009 11.1177Z" fill="#0B63E5"/>
<path d="M5.49962 11.1177C6.12094 11.1177 6.62462 10.614 6.62462 9.99268C6.62462 9.37136 6.12094 8.86768 5.49962 8.86768C4.8783 8.86768 4.37462 9.37136 4.37462 9.99268C4.37462 10.614 4.8783 11.1177 5.49962 11.1177Z" fill="#0B63E5"/>
<path d="M14.5 11.1177C15.1213 11.1177 15.625 10.614 15.625 9.99268C15.625 9.37136 15.1213 8.86768 14.5 8.86768C13.8787 8.86768 13.375 9.37136 13.375 9.99268C13.375 10.614 13.8787 11.1177 14.5 11.1177Z" fill="#0B63E5"/>
</svg>
