<svg width="38" height="38" viewBox="0 0 38 38" fill="none" xmlns="http://www.w3.org/2000/svg">
<path d="M37.2712 18.4052L35.5228 17.3971C35.1763 13.6955 33.5696 10.0884 30.7501 7.2531C27.9936 4.48083 24.418 2.81116 20.5903 2.46463L19.5822 0.73196C19.346 0.32242 18.6686 0.32242 18.4324 0.73196L17.4243 2.46463C13.5966 2.82692 10.021 4.49658 7.26452 7.2531C4.42924 10.0884 2.83834 13.6955 2.4918 17.4128L0.74338 18.4209C0.53861 18.5312 0.412598 18.7517 0.412598 18.988C0.412598 19.2243 0.53861 19.4448 0.74338 19.5551L2.4918 20.5632C2.83834 24.2648 4.44499 27.8876 7.26452 30.7229C10.021 33.4794 13.5809 35.1491 17.4243 35.5114L18.4324 37.244C18.5426 37.4488 18.7631 37.5748 18.9994 37.5748C19.2357 37.5748 19.4562 37.4488 19.5665 37.244L20.5746 35.5114C24.4022 35.1491 27.9778 33.4794 30.7343 30.7229C33.5696 27.8876 35.1605 24.2805 35.507 20.5632L37.2555 19.5551C37.4602 19.4448 37.5862 19.2243 37.5862 18.988C37.602 18.736 37.476 18.5155 37.2712 18.4052ZM28.8756 28.8327C26.2451 31.4632 22.7483 32.9124 19.0152 32.9124C15.2978 32.9124 11.7852 31.4632 9.15471 28.8327C3.72042 23.3984 3.72042 14.5618 9.15471 9.12753C11.7852 6.49703 15.2821 5.04788 19.0152 5.04788C22.7325 5.04788 26.2294 6.49703 28.8756 9.12753C34.2942 14.5461 34.2942 23.3984 28.8756 28.8327Z" fill="#0B63E5"/>
<path d="M28.3235 9.34766C28.2762 9.34766 28.229 9.34766 28.1975 9.37916L16.4941 16.3886L9.40586 28.1865C9.37435 28.2968 9.39011 28.4228 9.48462 28.5015C9.54762 28.5645 9.62638 28.596 9.70514 28.596C9.73664 28.596 9.76814 28.596 9.7839 28.5803L21.5976 21.4921L28.6227 9.7887C28.67 9.67844 28.6385 9.53667 28.544 9.44217C28.481 9.37916 28.4022 9.34766 28.3235 9.34766ZM17.4549 17.3652L20.6367 20.5313L12.6979 25.2882L17.4549 17.3652Z" fill="#0B63E5"/>
</svg>
