<svg width="8" height="5" viewBox="0 0 8 5" fill="none" xmlns="http://www.w3.org/2000/svg">
<path d="M7.78953 0.222057C7.72324 0.151666 7.64451 0.0958203 7.55784 0.0577167C7.47116 0.0196132 7.37825 0 7.28441 0C7.19058 0 7.09766 0.0196132 7.01099 0.0577167C6.92431 0.0958203 6.84558 0.151666 6.7793 0.222057L3.99938 3.1682L1.21945 0.222057C1.08549 0.0800823 0.903795 0.000321518 0.71434 0.000321518C0.524885 0.000321518 0.343189 0.0800823 0.209224 0.222057C0.0752592 0.364032 0 0.556591 0 0.757374C0 0.958156 0.0752592 1.15072 0.209224 1.29269L3.49784 4.77794C3.56413 4.84833 3.64286 4.90418 3.72953 4.94228C3.81621 4.98039 3.90912 5 4.00296 5C4.09679 5 4.18971 4.98039 4.27638 4.94228C4.36306 4.90418 4.44179 4.84833 4.50807 4.77794L7.79669 1.29269C8.06895 1.00415 8.06895 0.51819 7.78953 0.222057Z" fill="white"/>
</svg>
