<svg width="33" height="34" viewBox="0 0 33 34" fill="none" xmlns="http://www.w3.org/2000/svg">
<path fill-rule="evenodd" clip-rule="evenodd" d="M16.7406 0.11871V0.118042H17.1172V0.12209C21.2563 0.196594 25.0243 1.50103 27.7897 3.84213C30.6453 6.25967 32.41 9.766 32.41 14.0943V17.2929C32.41 17.353 32.4098 17.413 32.4094 17.4728C32.3853 23.0521 30.6488 26.9551 27.7952 29.4602C25.016 31.8999 21.2369 32.9608 17.1172 33.0213V33.0237H16.8641L16.7407 33.024H15.7372H15.6748V33.0246C15.6193 33.0246 15.5639 33.0244 15.5085 33.024H15.2982V33.0218C11.1785 32.9613 7.39916 31.9002 4.61983 29.4525C1.74616 26.9217 0.00585938 22.9656 0.00585938 17.2929V14.0943C0.00585938 14.0267 0.00629023 13.9593 0.0071494 13.8921C0.0612735 9.65669 1.81518 6.22189 4.62617 3.84213C7.47506 1.43029 11.3881 0.11871 15.6748 0.11871V0.118802L15.7375 0.11871H16.7406ZM5.18781 4.49721C7.77067 2.31678 11.3257 1.06705 15.2982 0.98124V1.03869H15.7372H16.7407C20.858 1.03869 24.5649 2.29848 27.2351 4.559C29.8985 6.81384 31.5519 10.0809 31.5519 14.1565V17.3551L31.5516 17.4655C31.5168 22.8614 29.8465 26.5029 27.2222 28.8C24.5602 31.1303 20.851 32.135 16.6815 32.1041L16.6783 32.1041H15.6748C11.5364 32.1041 7.84164 31.0844 5.18625 28.7534C2.54092 26.4312 0.863656 22.7515 0.863656 17.2929V14.0943C0.863656 13.8396 0.870114 13.5881 0.882875 13.3397C1.07429 9.61437 2.68384 6.61104 5.18781 4.49721ZM23.1376 20.4281C23.7648 19.1111 23.7648 13.9683 23.2003 12.5886C23.0122 12.0868 22.6359 11.7105 22.1342 11.4597C21.1934 11.1461 13.2912 11.1461 10.7198 11.397C10.2181 11.397 9.77904 11.6478 9.46546 12.0241C8.52471 13.153 8.65014 18.7975 9.15188 20.1772C9.34002 20.7417 9.71632 21.118 10.2808 21.3061C11.5351 21.7452 21.3816 21.7452 22.3223 21.2434C22.6986 21.0553 22.9495 20.8044 23.1376 20.4281ZM17.8035 15.6633C18.1991 15.8711 18.5967 16.08 18.9983 16.2888C18.2144 16.6965 17.4461 17.1041 16.6778 17.5118C15.9096 17.9195 15.1413 18.3271 14.3573 18.7348V13.9056C15.5236 14.4654 16.6551 15.0599 17.8035 15.6633Z" fill="#141D38"/>
</svg>
