<svg width="34" height="34" viewBox="0 0 34 34" fill="none" xmlns="http://www.w3.org/2000/svg">
<path fill-rule="evenodd" clip-rule="evenodd" d="M17.3954 0.11871V0.118042H17.772V0.122098C21.9109 0.196688 25.6787 1.50111 28.444 3.84213C31.2996 6.25967 33.0643 9.766 33.0643 14.0943V17.2929L33.0642 17.3766C33.0597 23.0072 31.3197 26.9408 28.4497 29.4602C25.6705 31.8998 21.8915 32.9608 17.772 33.0213V33.0237H17.5186L17.3952 33.024H16.3917H16.3291V33.0246C16.2736 33.0246 16.2182 33.0244 16.1628 33.024H15.9527V33.0218C11.833 32.9614 8.0535 31.9002 5.27413 29.4525C2.40046 26.9217 0.660156 22.9656 0.660156 17.2929V14.0943C0.660156 14.0267 0.660587 13.9593 0.661446 13.8921C0.71557 9.65669 2.46948 6.22189 5.28047 3.84213C8.12936 1.43029 12.0424 0.11871 16.3291 0.11871V0.118802L16.3918 0.11871H17.3953L17.3954 0.11871ZM5.8421 4.49721C8.42501 2.31674 11.9802 1.067 15.9527 0.981235V1.03869H16.3917H17.3952C21.5125 1.03869 25.2194 2.29848 27.8896 4.559C30.553 6.81384 32.2064 10.0809 32.2064 14.1565V17.3551L32.2064 17.3743C32.1898 22.8204 30.5155 26.4899 27.8765 28.8C25.2145 31.1303 21.5053 32.135 17.3358 32.1041L17.3326 32.1041H16.3291C12.1907 32.1041 8.49594 31.0844 5.84055 28.7534C3.19522 26.4312 1.51795 22.7515 1.51795 17.2929V14.0943C1.51795 13.8396 1.52441 13.5881 1.53717 13.3397C1.72859 9.61437 3.33814 6.61104 5.8421 4.49721ZM23.1723 11.0001H21.0257L17.4883 14.8352L14.4299 11.0006H10.0001L15.2932 17.5624L10.2766 23.0001H12.4244L16.2966 18.8048L19.6799 23.0001H24.0001L18.4823 16.0838L23.1723 11.0001ZM21.462 21.782H20.2726L12.5072 12.1546H13.7836L21.462 21.782Z" fill="#141D38"/>
</svg>
