<svg width="25" height="20" viewBox="0 0 25 20" fill="none" xmlns="http://www.w3.org/2000/svg">
<path d="M24.6146 2.36106C24.1333 1.53397 23.2479 0.972168 22.2222 0.972168H12.5V2.36106H24.6146ZM0 14.8611H25V16.2499H0V14.8611ZM12.5 9.3055H25V10.6944H12.5V9.3055ZM12.5 6.52772H25V7.91661H12.5V6.52772ZM0 12.0833H25V13.4722H0V12.0833ZM2.77778 19.0277H22.2222C23.2479 19.0277 24.1333 18.4659 24.6146 17.6388H0.385417C0.866667 18.4659 1.75208 19.0277 2.77778 19.0277ZM12.5 3.74995H25V5.13883H12.5V3.74995Z" fill="#B22334"/>
<path d="M0.0472222 16.7215C0.0587963 16.7863 0.0724537 16.8504 0.0881944 16.9139C0.106713 16.9833 0.128009 17.0518 0.152083 17.1194C0.213889 17.2993 0.288889 17.4729 0.383333 17.6354L0.385417 17.6389H24.6146L24.616 17.6361C24.7101 17.4728 24.7873 17.3004 24.8465 17.1215C24.8916 16.991 24.9269 16.8573 24.9521 16.7215C24.9806 16.5687 25 16.4118 25 16.25H0C0 16.4118 0.0194444 16.568 0.0472222 16.7215ZM0 13.4722H25V14.8611H0V13.4722ZM0 10.6944V12.0833H25V10.6944H12.5H0ZM12.5 7.91664H25V9.30553H12.5V7.91664ZM12.5 5.13886H25V6.52775H12.5V5.13886ZM0.0888889 3.08608C0.10625 3.01525 0.130556 2.94789 0.152778 2.87983C0.128817 2.94773 0.107504 3.01653 0.0888889 3.08608ZM12.5 3.74997H25C25 3.58817 24.9806 3.43122 24.9521 3.27775C24.9278 3.14171 24.8922 3.00792 24.8458 2.87775C24.7865 2.6981 24.7091 2.52498 24.6146 2.36108H12.5V3.74997Z" fill="#EEEEEE"/>
<path d="M12.5 0.972168H2.77778C2.04107 0.972168 1.33453 1.26483 0.813592 1.78576C0.292658 2.30669 0 3.01323 0 3.74995L0 10.6944H12.5V0.972168Z" fill="#3C3B6E"/>
<path d="M1.38971 2.86525L1.81888 3.17706L1.65499 3.68053L2.08346 3.36942L2.51263 3.68053L2.34874 3.17706L2.7779 2.86525H2.24735L2.08346 2.36108L1.92027 2.86525H1.38971ZM2.7786 4.25414L3.20776 4.56595L3.04388 5.06942L3.47235 4.75831L3.90152 5.06942L3.73763 4.56595L4.16679 4.25414H3.63624L3.47235 3.74997L3.30915 4.25414H2.7786ZM5.55638 4.25414L5.98554 4.56595L5.82165 5.06942L6.25013 4.75831L6.67929 5.06942L6.5154 4.56595L6.94457 4.25414H6.41401L6.25013 3.74997L6.08693 4.25414H5.55638ZM8.33415 4.25414L8.76332 4.56595L8.59943 5.06942L9.0279 4.75831L9.45707 5.06942L9.29318 4.56595L9.72235 4.25414H9.19179L9.0279 3.74997L8.86471 4.25414H8.33415ZM2.7786 7.03192L3.20776 7.34372L3.04388 7.84719L3.47235 7.53608L3.90152 7.84719L3.73763 7.34372L4.16679 7.03192H3.63624L3.47235 6.52775L3.30915 7.03192H2.7786ZM5.55638 7.03192L5.98554 7.34372L5.82165 7.84719L6.25013 7.53608L6.67929 7.84719L6.5154 7.34372L6.94457 7.03192H6.41401L6.25013 6.52775L6.08693 7.03192H5.55638ZM8.33415 7.03192L8.76332 7.34372L8.59943 7.84719L9.0279 7.53608L9.45707 7.84719L9.29318 7.34372L9.72235 7.03192H9.19179L9.0279 6.52775L8.86471 7.03192H8.33415ZM4.16749 2.86525L4.59665 3.17706L4.43277 3.68053L4.86124 3.36942L5.2904 3.68053L5.12651 3.17706L5.55568 2.86525H5.02513L4.86124 2.36108L4.69804 2.86525H4.16749ZM6.94526 2.86525L7.37443 3.17706L7.21054 3.68053L7.63902 3.36942L8.06818 3.68053L7.90429 3.17706L8.33346 2.86525H7.8029L7.63902 2.36108L7.47582 2.86525H6.94526ZM9.72304 2.86525L10.1522 3.17706L9.98832 3.68053L10.4168 3.36942L10.846 3.68053L10.6821 3.17706L11.1112 2.86525H10.5807L10.4168 2.36108L10.2536 2.86525H9.72304ZM1.38971 5.64303L1.81888 5.95483L1.65499 6.45831L2.08346 6.14719L2.51263 6.45831L2.34874 5.95483L2.7779 5.64303H2.24735L2.08346 5.13886L1.92027 5.64303H1.38971ZM4.43277 6.45831L4.86124 6.14719L5.2904 6.45831L5.12651 5.95483L5.55568 5.64303H5.02513L4.86124 5.13886L4.69804 5.64303H4.16749L4.59665 5.95483L4.43277 6.45831ZM6.94526 5.64303L7.37443 5.95483L7.21054 6.45831L7.63902 6.14719L8.06818 6.45831L7.90429 5.95483L8.33346 5.64303H7.8029L7.63902 5.13886L7.47582 5.64303H6.94526ZM9.72304 5.64303L10.1522 5.95483L9.98832 6.45831L10.4168 6.14719L10.846 6.45831L10.6821 5.95483L11.1112 5.64303H10.5807L10.4168 5.13886L10.2536 5.64303H9.72304ZM1.38971 8.42081L1.81888 8.73261L1.65499 9.23608L2.08346 8.92497L2.51263 9.23608L2.34874 8.73261L2.7779 8.42081H2.24735L2.08346 7.91664L1.92027 8.42081H1.38971ZM4.43277 9.23608L4.86124 8.92497L5.2904 9.23608L5.12651 8.73261L5.55568 8.42081H5.02513L4.86124 7.91664L4.69804 8.42081H4.16749L4.59665 8.73261L4.43277 9.23608ZM6.94526 8.42081L7.37443 8.73261L7.21054 9.23608L7.63902 8.92497L8.06818 9.23608L7.90429 8.73261L8.33346 8.42081H7.8029L7.63902 7.91664L7.47582 8.42081H6.94526ZM9.72304 8.42081L10.1522 8.73261L9.98832 9.23608L10.4168 8.92497L10.846 9.23608L10.6821 8.73261L11.1112 8.42081H10.5807L10.4168 7.91664L10.2536 8.42081H9.72304Z" fill="white"/>
</svg>
