<svg width="21" height="11" viewBox="0 0 21 11" fill="none" xmlns="http://www.w3.org/2000/svg">
<path fill-rule="evenodd" clip-rule="evenodd" d="M3.75 5.25C3.75 4.83579 4.08579 4.5 4.5 4.5H16.5C16.9142 4.5 17.25 4.83579 17.25 5.25C17.25 5.66421 16.9142 6 16.5 6H4.5C4.08579 6 3.75 5.66421 3.75 5.25Z" fill="#141D38"/>
<path fill-rule="evenodd" clip-rule="evenodd" d="M0 0.75C0 0.335786 0.335786 0 0.75 0H20.25C20.6642 0 21 0.335786 21 0.75C21 1.16421 20.6642 1.5 20.25 1.5H0.75C0.335786 1.5 0 1.16421 0 0.75Z" fill="#141D38"/>
<path fill-rule="evenodd" clip-rule="evenodd" d="M7.5 9.75C7.5 9.33579 7.83579 9 8.25 9H12.75C13.1642 9 13.5 9.33579 13.5 9.75C13.5 10.1642 13.1642 10.5 12.75 10.5H8.25C7.83579 10.5 7.5 10.1642 7.5 9.75Z" fill="#141D38"/>
</svg>
