<svg width="152" height="56" viewBox="0 0 152 56" fill="none" xmlns="http://www.w3.org/2000/svg">
<g clip-path="url(#clip0_2_170)">
<g clip-path="url(#clip1_2_170)">
<mask id="mask0_2_170" style="mask-type:luminance" maskUnits="userSpaceOnUse" x="0" y="0" width="151" height="54">
<path d="M150.5 0H0.5V54H150.5V0Z" fill="white"/>
</mask>
<g mask="url(#mask0_2_170)">
<mask id="mask1_2_170" style="mask-type:luminance" maskUnits="userSpaceOnUse" x="0" y="0" width="151" height="54">
<path d="M150.5 0H0.5V54H150.5V0Z" fill="white"/>
</mask>
<g mask="url(#mask1_2_170)">
<path d="M65.5 21V38H61.5V31H54.5V38H50.5V21H54.5V28H61.5V21H65.5Z" fill="#141D38"/>
<path d="M69.5 23C68.761 23 67.976 22.4328 67.5 22C67.0402 21.5505 66.5 20.6492 66.5 20C66.5 19.3341 67.0402 19.4328 67.5 19C67.976 18.5505 68.761 18 69.5 18C70.2225 18 70.0405 18.5505 70.5 19C70.9763 19.4328 71.5 19.3341 71.5 20C71.5 20.6492 70.9763 21.5505 70.5 22C70.0405 22.4328 70.2225 23 69.5 23ZM71.5 24V38H66.5V24H71.5Z" fill="#141D38"/>
<path d="M81.5 34V38H79.5C77.9148 38 76.3864 37.7347 75.5 37C74.6138 36.2486 74.5 34.6821 74.5 33V28H72.5V24H74.5V21H78.5V24H81.5V28H78.5V33C78.5 33.4084 78.296 33.8203 78.5 34C78.7047 34.1797 79.023 34 79.5 34H81.5Z" fill="#141D38"/>
<path d="M95.5 31C95.5 31.3902 95.55 31.5774 95.5 32H85.5C85.5668 32.8456 86.0162 33.5446 86.5 34C86.9997 34.4389 87.7835 35 88.5 35C89.5669 35 90.083 33.8781 90.5 33H95.5C95.2672 33.8944 94.1165 35.2845 93.5 36C92.9002 36.7155 92.4168 36.5937 91.5 37C90.5833 37.4067 89.6337 38 88.5 38C87.1336 38 85.5662 37.5689 84.5 37C83.4332 36.4308 83.1005 36.0569 82.5 35C81.9001 33.943 81.5 32.4145 81.5 31C81.5 29.5851 81.9161 28.0569 82.5 27C83.0998 25.9431 83.4332 25.5691 84.5 25C85.5661 24.4309 87.117 24 88.5 24C89.8505 24 91.4498 24.4471 92.5 25C93.5502 25.5529 93.9169 25.9756 94.5 27C95.0999 28.0243 95.5 29.6342 95.5 31ZM91.5 30C91.5 29.2845 91.0004 28.4228 90.5 28C90.0003 27.5773 89.2492 27 88.5 27C87.7828 27 87.0005 27.5935 86.5 28C86.017 28.4065 85.616 29.252 85.5 30H91.5Z" fill="#141D38"/>
<path d="M96.5 31C96.5 29.5851 96.9033 28.0569 97.5 27C98.1129 25.9431 98.4271 25.5691 99.5 25C100.59 24.4309 102.104 24 103.5 24C105.288 24 107.307 24.1057 108.5 25C109.71 25.8943 110.126 27.3739 110.5 29H105.5C105.108 27.9593 104.624 28 103.5 28C102.699 28 101.977 27.3984 101.5 28C101.023 28.5853 100.5 29.8943 100.5 31C100.5 32.1057 101.023 33.3985 101.5 34C101.977 34.5853 102.699 34 103.5 34C104.624 34 105.108 34.041 105.5 33H110.5C110.126 34.5937 109.71 36.0896 108.5 37C107.29 37.9107 105.271 38 103.5 38C102.104 38 100.59 37.5689 99.5 37C98.4271 36.4308 98.1129 36.0569 97.5 35C96.9033 33.943 96.5 32.4145 96.5 31Z" fill="#141D38"/>
<path d="M119.5 24C121.115 24 122.524 24.9621 123.5 26C124.475 27.0216 124.5 28.2 124.5 30V38H120.5V31C120.5 30.092 119.987 29.5027 119.5 29C119.012 28.4973 118.323 28 117.5 28C116.676 28 115.988 28.4973 115.5 29C115.013 29.5027 114.5 30.092 114.5 31V38H110.5V20H114.5V26C114.937 25.4 115.743 25.3567 116.5 25C117.257 24.6432 118.558 24 119.5 24Z" fill="#141D38"/>
<path d="M28.5 29V14H33.5V22C34.3936 21.6641 35.4847 21 36.5 21C40.9183 21 44.5 24.6965 44.5 29V38H39.5V29C39.5 27.4508 38.0906 26 36.5 26C34.9101 26 33.5011 27.4517 33.5 29V38H28.5V29Z" fill="#141D38"/>
<path d="M39.5 19V14H44.5V19H39.5Z" fill="#141D38"/>
</g>
</g>
</g>
</g>
<defs>
<clipPath id="clip0_2_170">
<rect width="151" height="55" fill="white" transform="translate(0.5)"/>
</clipPath>
<clipPath id="clip1_2_170">
<rect width="151" height="55" fill="white" transform="translate(0.5)"/>
</clipPath>
</defs>
</svg>
