<svg width="21" height="20" viewBox="0 0 21 20" fill="none" xmlns="http://www.w3.org/2000/svg">
<path fill-rule="evenodd" clip-rule="evenodd" d="M9.09611 1.53845C5.0602 1.53845 1.78845 4.8102 1.78845 8.84611C1.78845 12.882 5.0602 16.1538 9.09611 16.1538C13.132 16.1538 16.4038 12.882 16.4038 8.84611C16.4038 4.8102 13.132 1.53845 9.09611 1.53845ZM0.25 8.84611C0.25 3.96054 4.21054 0 9.09611 0C13.9817 0 17.9422 3.96054 17.9422 8.84611C17.9422 13.7317 13.9817 17.6922 9.09611 17.6922C4.21054 17.6922 0.25 13.7317 0.25 8.84611Z" fill="#B0B0B0"/>
<path fill-rule="evenodd" clip-rule="evenodd" d="M14.2633 14.0138C14.5637 13.7134 15.0507 13.7134 15.3511 14.0138L20.0242 18.6869C20.3246 18.9873 20.3246 19.4743 20.0242 19.7747C19.7238 20.0751 19.2367 20.0751 18.9363 19.7747L14.2633 15.1017C13.9629 14.8012 13.9629 14.3142 14.2633 14.0138Z" fill="#B0B0B0"/>
</svg>
