<svg width="14" height="18" viewBox="0 0 14 18" fill="none" xmlns="http://www.w3.org/2000/svg">
<path fill-rule="evenodd" clip-rule="evenodd" d="M1.54443 16.4284C1.54443 16.1127 1.78864 15.8568 2.08989 15.8568H11.9081C12.2093 15.8568 12.4535 16.1127 12.4535 16.4284C12.4535 16.7441 12.2093 17 11.9081 17H2.08989C1.78864 17 1.54443 16.7441 1.54443 16.4284Z" fill="#0B63E5" stroke="#0B63E5" stroke-width="0.25" stroke-linecap="round" stroke-linejoin="round"/>
<path fill-rule="evenodd" clip-rule="evenodd" d="M7.00108 5.57164C6.09734 5.57164 5.36471 6.33936 5.36471 7.28639C5.36471 8.23343 6.09734 9.00115 7.00108 9.00115C7.90482 9.00115 8.63744 8.23343 8.63744 7.28639C8.63744 6.33936 7.90482 5.57164 7.00108 5.57164ZM4.2738 7.28639C4.2738 5.708 5.49485 4.42847 7.00108 4.42847C8.50731 4.42847 9.72835 5.708 9.72835 7.28639C9.72835 8.86478 8.50731 10.1443 7.00108 10.1443C5.49485 10.1443 4.2738 8.86478 4.2738 7.28639Z" fill="#0B63E5" stroke="#0B63E5" stroke-width="0.25" stroke-linecap="round" stroke-linejoin="round"/>
<path fill-rule="evenodd" clip-rule="evenodd" d="M7 2.14283C5.69803 2.14283 4.44938 2.68465 3.52875 3.6491C2.60812 4.61355 2.09091 5.92163 2.09091 7.28557C2.09091 9.6512 3.35192 11.8053 4.68433 13.4105C5.34387 14.205 6.00482 14.8457 6.50099 15.2875C6.69721 15.4622 6.86704 15.6053 7 15.7139C7.13296 15.6053 7.30279 15.4622 7.49901 15.2875C7.99518 14.8457 8.65613 14.205 9.31567 13.4105C10.6481 11.8053 11.9091 9.6512 11.9091 7.28557C11.9091 5.92163 11.3919 4.61355 10.4713 3.6491C9.55062 2.68465 8.30197 2.14283 7 2.14283ZM7 16.4282C6.6872 16.8963 6.68705 16.8962 6.68688 16.8961L6.68642 16.8958L6.68515 16.8948L6.68112 16.8918L6.66725 16.8815C6.65546 16.8727 6.63864 16.86 6.61714 16.8436C6.57413 16.8107 6.51232 16.7627 6.4344 16.7003C6.27862 16.5756 6.05812 16.393 5.79447 16.1583C5.26791 15.6894 4.56522 15.0086 3.86112 14.1604C2.46627 12.4799 1 10.0627 1 7.28557C1 5.61853 1.63214 4.01977 2.75736 2.841C3.88258 1.66223 5.4087 1 7 1C8.5913 1 10.1174 1.66223 11.2426 2.841C12.3679 4.01977 13 5.61853 13 7.28557C13 10.0627 11.5337 12.4799 10.1389 14.1604C9.43478 15.0086 8.73209 15.6894 8.20554 16.1583C7.94188 16.393 7.72138 16.5756 7.5656 16.7003C7.48768 16.7627 7.42587 16.8107 7.38286 16.8436C7.36136 16.86 7.34454 16.8727 7.33275 16.8815L7.31888 16.8918L7.31485 16.8948L7.31358 16.8958L7.31312 16.8961C7.31295 16.8962 7.3128 16.8963 7 16.4282ZM7 16.4282L7.3128 16.8963C7.12499 17.0341 6.87501 17.0341 6.6872 16.8963L7 16.4282Z" fill="#0B63E5"/>
<path d="M7 16.4282C6.6872 16.8963 6.68705 16.8962 6.68688 16.8961L6.68642 16.8958L6.68515 16.8948L6.68112 16.8918L6.66725 16.8815C6.65546 16.8727 6.63864 16.86 6.61714 16.8436C6.57413 16.8107 6.51232 16.7627 6.4344 16.7003C6.27862 16.5756 6.05812 16.393 5.79446 16.1583C5.26791 15.6894 4.56522 15.0086 3.86112 14.1604C2.46627 12.4799 1 10.0627 1 7.28557C1 5.61853 1.63214 4.01977 2.75736 2.841C3.88258 1.66223 5.4087 1 7 1C8.5913 1 10.1174 1.66223 11.2426 2.841C12.3679 4.01977 13 5.61853 13 7.28557C13 10.0627 11.5337 12.4799 10.1389 14.1604C9.43478 15.0086 8.73209 15.6894 8.20554 16.1583C7.94188 16.393 7.72138 16.5756 7.5656 16.7003C7.48768 16.7627 7.42587 16.8107 7.38286 16.8436C7.36136 16.86 7.34454 16.8727 7.33275 16.8815L7.31888 16.8918L7.31485 16.8948L7.31358 16.8958L7.31312 16.8961C7.31295 16.8962 7.3128 16.8963 7 16.4282ZM7 16.4282L7.3128 16.8963C7.12499 17.0341 6.87501 17.0341 6.6872 16.8963L7 16.4282ZM3.52875 3.6491C4.44938 2.68465 5.69803 2.14283 7 2.14283C8.30197 2.14283 9.55062 2.68465 10.4713 3.6491C11.3919 4.61355 11.9091 5.92163 11.9091 7.28557C11.9091 9.6512 10.6481 11.8053 9.31567 13.4105C8.65613 14.205 7.99518 14.8457 7.49901 15.2875C7.30279 15.4622 7.13296 15.6053 7 15.7139C6.86704 15.6053 6.69721 15.4622 6.50099 15.2875C6.00482 14.8457 5.34387 14.205 4.68433 13.4105C3.35192 11.8053 2.09091 9.6512 2.09091 7.28557C2.09091 5.92163 2.60812 4.61355 3.52875 3.6491Z" stroke="#0B63E5" stroke-width="0.25" stroke-linecap="round" stroke-linejoin="round"/>
</svg>
