<svg width="26" height="26" viewBox="0 0 26 26" fill="none" xmlns="http://www.w3.org/2000/svg">
<path fill-rule="evenodd" clip-rule="evenodd" d="M8.3742 17.6301C13.2145 22.4705 17.6999 23.0005 19.0167 23.0496C20.6079 23.1075 22.2318 21.8083 22.9342 20.4777C21.8139 19.1634 20.3548 18.1438 18.7573 17.0385C17.8144 17.9801 16.6525 19.7299 15.1054 19.103C14.2254 18.7493 12.0526 17.7485 10.1542 15.8488C8.25587 13.9492 7.25507 11.7777 6.89881 10.899C6.27189 9.34931 8.02675 8.18486 8.96964 7.24197C7.86436 5.61803 6.8623 4.12124 5.55056 3.0575C4.20106 3.76247 2.89435 5.37381 2.95352 6.98642C3.00261 8.3032 3.5326 12.7885 8.3742 17.6301ZM18.9235 25.566C17.1107 25.4993 11.9733 24.7893 6.5929 19.4102C1.21377 14.0298 0.505024 8.8936 0.437046 7.07958C0.336336 4.31511 2.45375 1.62995 4.89973 0.58131C5.19427 0.454123 5.51682 0.405699 5.83573 0.44079C6.15464 0.475881 6.45895 0.593281 6.71879 0.78147C8.74305 2.25812 10.1391 4.49513 11.3388 6.24747C11.5884 6.61185 11.7027 7.05201 11.662 7.49179C11.6213 7.93156 11.4282 8.34327 11.116 8.65568L9.40899 10.364C9.80553 11.2389 10.6125 12.747 11.9343 14.0688C13.2561 15.3906 14.7642 16.1975 15.6404 16.5941L17.3461 14.8871C17.6594 14.5736 18.0729 14.3802 18.5143 14.3408C18.9557 14.3015 19.3969 14.4186 19.7606 14.6718C21.5482 15.9105 23.648 17.2865 25.1788 19.2465C25.3823 19.5082 25.5117 19.8198 25.5536 20.1487C25.5954 20.4775 25.5482 20.8116 25.4167 21.1159C24.3631 23.5745 21.6968 25.668 18.9235 25.566Z" fill="#0B63E5"/>
</svg>
