<svg width="152" height="56" viewBox="0 0 152 56" fill="none" xmlns="http://www.w3.org/2000/svg">
<g clip-path="url(#clip0_2_149)">
<g clip-path="url(#clip1_2_149)">
<mask id="mask0_2_149" style="mask-type:luminance" maskUnits="userSpaceOnUse" x="1" y="0" width="150" height="54">
<path d="M151 0H1V54H151V0Z" fill="white"/>
</mask>
<g mask="url(#mask0_2_149)">
<mask id="mask1_2_149" style="mask-type:luminance" maskUnits="userSpaceOnUse" x="1" y="0" width="150" height="54">
<path d="M151 0H1V54H151V0Z" fill="white"/>
</mask>
<g mask="url(#mask1_2_149)">
<path d="M31 43H21L31 28H41L31 43Z" fill="#141D38"/>
<path d="M28 12H38L28 28H17L28 12Z" fill="#141D38"/>
<path d="M62 25C62 25.9092 61.4598 27.2043 61 28C60.5573 28.7955 59.9704 29.5128 59 30C58.0464 30.4871 57.4644 30 56 30H53V37H49V20H56C57.3791 20 58.0295 20.5453 59 21C59.9707 21.4545 60.523 22.2043 61 23C61.4938 23.7956 62 23.9934 62 25ZM55 28C55.9877 28 57.5231 27.4224 58 27C58.4767 26.5619 58 25.7795 58 25C58 23.3439 56.9413 23 55 23H53V28H55Z" fill="#141D38"/>
<path d="M67 25C67.4645 24.2693 67.2601 24.4151 68 24C68.757 23.5849 70.0365 23 71 23V27H70C68.8647 27 67.585 26.4849 67 27C66.4323 27.5148 67 28.7212 67 30V37H63V23H67V25Z" fill="#141D38"/>
<path d="M78 37C76.6899 37 75.0478 36.571 74 36C72.9521 35.4126 72.6057 35.0607 72 34C71.4105 32.9394 71 31.3871 71 30C71 28.6132 71.3941 27.0605 72 26C72.6222 24.9393 72.9356 24.5712 74 24C75.0643 23.4126 76.6899 23 78 23C79.3093 23 80.936 23.4126 82 24C83.0646 24.5712 83.3938 24.9393 84 26C84.6223 27.0605 85 28.6132 85 30C85 31.3871 84.6385 32.9394 84 34C83.3776 35.0607 82.0809 35.4126 81 36C79.936 36.571 79.3263 37 78 37ZM78 34C78.6216 34 79.46 34.2936 80 34C80.5569 33.69 80.673 32.6036 81 32C81.3277 31.3961 81 30.8649 81 30C81 28.711 80.6877 27.6855 80 27C79.3284 26.2984 78.9824 26 78 26C77.0176 26 75.6711 26.2984 75 27C74.3448 27.6855 74 28.711 74 30C74 31.289 74.3613 32.2984 75 33C75.6546 33.6852 77.0176 34 78 34Z" fill="#141D38"/>
<path d="M90 35H94V38H87V18H90V35Z" fill="#141D38"/>
<path d="M97 22C96.4267 22 96.3875 22.3912 96 22C95.6278 21.5918 95 20.5953 95 20C95 19.4048 95.6278 19.3912 96 19C96.3875 18.5919 96.4267 18 97 18C97.5739 18 97.6278 18.5919 98 19C98.3875 19.3912 99 19.4048 99 20C99 20.5953 98.3875 21.5918 98 22C97.6278 22.3912 97.5739 22 97 22ZM99 24V38H95V24H99Z" fill="#141D38"/>
<path d="M110 23C111.625 23 111.999 23.9537 113 25C114.001 26.0295 115 27.1401 115 29V37H112V29C112 27.9038 111.542 27.5815 111 27C110.457 26.4022 109.935 26 109 26C108.048 26 106.558 26.4022 106 27C105.458 27.5815 105 27.9038 105 29V37H102V23H105V25C105.459 24.4021 106.293 24.3321 107 24C107.721 23.6512 109.146 23 110 23Z" fill="#141D38"/>
<path d="M130 30C130 30.4895 130.069 30.6084 130 31H120C120.084 31.979 120.373 32.4453 121 33C121.627 33.5549 122.086 34 123 34C124.321 34 125.44 34.0932 126 33H130C129.594 34.3055 128.151 35.1513 127 36C125.848 36.832 124.678 37 123 37C121.646 37 120.084 36.571 119 36C117.933 35.4126 117.61 35.0607 117 34C116.408 32.9394 116 31.3871 116 30C116 28.5969 116.408 27.0606 117 26C117.593 24.9394 117.933 24.5711 119 24C120.066 23.4288 121.612 23 123 23C124.339 23 125.95 23.4452 127 24C128.066 24.5548 128.425 24.9718 129 26C129.593 27.0116 130 28.6782 130 30ZM126 29C125.984 28.1187 125.644 27.5223 125 27C124.356 26.4616 123.932 26 123 26C122.12 26 121.609 26.4777 121 27C120.408 27.5057 120.135 28.0862 120 29H126Z" fill="#141D38"/>
</g>
</g>
</g>
</g>
<defs>
<clipPath id="clip0_2_149">
<rect width="152" height="55" fill="white"/>
</clipPath>
<clipPath id="clip1_2_149">
<rect width="152" height="55" fill="white"/>
</clipPath>
</defs>
</svg>
