<svg width="38" height="34" viewBox="0 0 38 34" fill="none" xmlns="http://www.w3.org/2000/svg">
<path d="M1.0835 29.1619V18.9224L10.0417 15.084L18.9999 18.9252V29.1619L10.0417 32.9975L1.0835 29.1619Z" stroke="#0B63E5" stroke-width="2" stroke-linecap="round" stroke-linejoin="round"/>
<path d="M1.0835 18.9025L10.0417 22.7409L18.9999 18.9025M10.0417 4.91504L18.997 8.75628L27.9552 4.91787" stroke="#0B63E5" stroke-width="2" stroke-linecap="round" stroke-linejoin="round"/>
<path d="M18.9944 18.9023L27.9526 22.7408L36.9108 18.9023" stroke="#0B63E5" stroke-width="2" stroke-linecap="round" stroke-linejoin="round"/>
<path d="M10.0449 22.7463V33M27.9641 22.7463V33M19.0003 8.75603V19.0069M10.0506 15.078V4.83842L19.0059 1L27.9641 4.83842V15.078L19.0059 18.9164L10.0506 15.078ZM19.0003 29.1616V18.922L27.9585 15.0836L36.9167 18.9249V29.1616L27.9585 32.9972L19.0003 29.1616Z" stroke="#0B63E5" stroke-width="2" stroke-linecap="round" stroke-linejoin="round"/>
</svg>
