<svg width="24" height="24" viewBox="0 0 24 24" fill="none" xmlns="http://www.w3.org/2000/svg">
<path d="M16.4206 13.8193L15.0066 13.6579C14.8404 13.6384 14.6718 13.6568 14.5137 13.7117C14.3556 13.7667 14.212 13.8568 14.0937 13.9752L13.0694 14.9995C11.4892 14.1956 10.2048 12.9112 9.4009 11.331L10.4308 10.3011C10.6701 10.0617 10.787 9.72773 10.7481 9.38815L10.5866 7.98532C10.5552 7.71371 10.4249 7.46317 10.2206 7.28145C10.0163 7.09974 9.75226 6.99955 9.47884 7H8.51579C7.88674 7 7.36347 7.52328 7.40244 8.15233C7.69747 12.9064 11.4996 16.7029 16.248 16.998C16.8771 17.0369 17.4003 16.5136 17.4003 15.8846V14.9215C17.4059 14.3593 16.9828 13.8861 16.4206 13.8193Z" fill="#0B63E5"/>
<circle cx="12" cy="12" r="11.25" stroke="#0B63E5" stroke-width="1.5"/>
</svg>
